<?xml version="1.0" encoding="UTF-8"?>
<svg id="Layer_1" xmlns="http://www.w3.org/2000/svg" version="1.1" viewBox="0 0 512 512">
  <!-- Generator: Adobe Illustrator 29.1.0, SVG Export Plug-In . SVG Version: 2.1.0 Build 142)  -->
  <defs>
    <style>
      .st0, .st1 {
        fill-rule: evenodd;
      }

      .st0, .st2 {
        fill: #009a66;
      }

      .st3, .st1 {
        fill: #1f3b90;
      }
    </style>
  </defs>
  <path class="st1" d="M141.93,192.34c19.3-25.17,62.03-80.94,78.91-102.51l44.18-.05c-3.52,6.32-51,65.07-61.39,79.84,1.26,3.29,33.04,56.14,35.71,60.68,9.99,16.95,27.52,45.1,35.85,60.74,12.27-.09,66.49,1.37,73.71-1.17,8.87-3.11,15.08-10.54,15.19-22.31.11-12.52.07-25.17-.01-37.69-10.71,7.65-17.89,13.12-32.84,15.65-15.21,2.58-28.72.13-40.97-5.72-48.43-23.11-50.76-94.52-.44-119.65,18.25-9.11,40.32-9.17,59.2-.14,7.7,3.68,11.78,8.08,15.04,9.89.13-11.09,1.8-40.47-2.25-48.66-2.58-5.22-7.27-9.76-13.76-11.62-5.55-1.59-18.06-.88-24.47-.88h-152.92c-8.29,0-15.4.18-20.54,4.78-4.26,3.81-8.15,8.4-8.44,16.9-.16,4.67-.57,97.64.24,101.92"/>
  <path class="st0" d="M230.16,291.07c-1.47-4.06-49.93-87.72-51.02-88.73-3.38,2.5-30.96,39.9-34.87,44.83-3.4,4.29-2.62,4-2.6,10.69.02,10.85-1.55,22.51,10.58,29.91,6.79,4.14,15.04,3.24,23.87,3.24,17.92,0,36.17-.34,54.04.05"/>
  <path class="st3" d="M493.36,307.62h10.98v48.96h-10.98v-48.96ZM466.01,348.05c2.42,0,4.41-.8,5.95-2.41,1.54-1.61,2.31-3.72,2.31-6.33s-.77-4.72-2.31-6.33c-1.54-1.61-3.52-2.41-5.95-2.41s-4.4.82-5.91,2.45c-1.52,1.63-2.27,3.73-2.27,6.29s.76,4.66,2.27,6.3c1.52,1.63,3.49,2.45,5.91,2.45ZM485.11,322.03v34.55h-9.51l-.7-4.13c-2.94,3.22-6.76,4.83-11.47,4.83-3.22,0-6.07-.76-8.57-2.27-2.49-1.52-4.44-3.64-5.84-6.37-1.4-2.73-2.1-5.84-2.1-9.34s.7-6.61,2.1-9.34c1.4-2.73,3.35-4.85,5.84-6.37,2.5-1.51,5.35-2.27,8.57-2.27,2.33,0,4.48.41,6.43,1.22,1.96.82,3.64,1.99,5.04,3.53l.7-4.06h9.51ZM444.19,355.26c-2.7,1.35-5.76,2.03-9.16,2.03-3.78,0-6.76-1.06-8.95-3.18-2.19-2.12-3.29-5.54-3.29-10.25v-13.08h-5.87v-8.74h5.87v-8.6l10.91-1.19v9.79h8.6v8.74h-8.6v13.08c0,1.4.35,2.44,1.05,3.11.7.68,1.66,1.01,2.87,1.01,1.35,0,2.68-.33,3.99-.98l2.59,8.25ZM397.74,321.26c4.29,0,7.71,1.4,10.25,4.2,2.54,2.8,3.81,6.67,3.81,11.61v19.51h-10.98v-18.89c0-2.24-.56-3.99-1.68-5.25-1.12-1.26-2.66-1.89-4.62-1.89-2.14,0-3.87.72-5.18,2.17-1.31,1.45-1.96,3.33-1.96,5.67v18.19h-10.98v-34.55h9.51l.7,4.06c1.35-1.54,2.97-2.73,4.86-3.57,1.89-.84,3.98-1.26,6.26-1.26ZM352.35,329.94c-2.19,0-3.98.56-5.35,1.68-1.38,1.12-2.16,2.68-2.34,4.69h15.25c-.14-2.01-.87-3.57-2.2-4.69-1.33-1.12-3.11-1.68-5.35-1.68ZM352,321.26c3.78,0,7.04.71,9.79,2.13,2.75,1.42,4.86,3.43,6.33,6.01,1.47,2.59,2.2,5.61,2.2,9.06,0,1.12-.12,2.5-.35,4.13h-25.39c.33,1.77,1.28,3.21,2.87,4.3,1.58,1.1,3.61,1.64,6.09,1.64,1.72,0,3.4-.26,5.04-.77,1.63-.51,3.03-1.24,4.2-2.17l5.74,6.15c-1.96,1.82-4.28,3.22-6.96,4.2-2.68.98-5.54,1.47-8.57,1.47-4.01,0-7.48-.73-10.42-2.2-2.94-1.47-5.2-3.56-6.79-6.26-1.59-2.7-2.38-5.9-2.38-9.58s.78-6.69,2.34-9.44c1.56-2.75,3.74-4.88,6.54-6.4,2.8-1.52,6.04-2.27,9.72-2.27ZM313.39,321.26c4.38,0,7.83,1.28,10.35,3.85,2.52,2.56,3.78,6.08,3.78,10.56v20.91h-10.98v-19.51c0-2.05-.48-3.65-1.43-4.79-.95-1.14-2.3-1.71-4.02-1.71-1.91,0-3.43.65-4.55,1.96-1.12,1.31-1.68,3.03-1.68,5.18v18.89h-10.91v-19.51c0-2.05-.47-3.65-1.4-4.79-.93-1.14-2.26-1.71-3.99-1.71-1.91,0-3.44.65-4.58,1.96-1.14,1.31-1.71,3.03-1.71,5.18v18.89h-10.98v-34.55h9.51l.63,3.85c1.21-1.49,2.67-2.63,4.37-3.43,1.7-.79,3.53-1.19,5.49-1.19,2.24,0,4.24.48,6.01,1.43,1.77.96,3.17,2.27,4.2,3.95,2.8-3.59,6.76-5.39,11.89-5.39ZM249.39,321.26c4.29,0,7.71,1.4,10.25,4.2,2.54,2.8,3.81,6.67,3.81,11.61v19.51h-10.98v-18.89c0-2.24-.56-3.99-1.68-5.25-1.12-1.26-2.66-1.89-4.62-1.89-2.14,0-3.87.72-5.18,2.17-1.31,1.45-1.96,3.33-1.96,5.67v18.19h-10.98v-34.55h9.51l.7,4.06c1.35-1.54,2.97-2.73,4.86-3.57,1.89-.84,3.98-1.26,6.26-1.26ZM202.74,348.05c2.42,0,4.38-.82,5.88-2.45,1.49-1.63,2.24-3.73,2.24-6.3s-.75-4.66-2.24-6.29c-1.49-1.63-3.45-2.45-5.88-2.45s-4.31.82-5.81,2.45c-1.49,1.63-2.24,3.73-2.24,6.29s.75,4.66,2.24,6.3c1.49,1.63,3.43,2.45,5.81,2.45ZM202.74,357.35c-3.82,0-7.17-.76-10.04-2.27-2.87-1.52-5.07-3.62-6.61-6.33-1.54-2.7-2.31-5.85-2.31-9.44s.77-6.74,2.31-9.44c1.54-2.7,3.74-4.81,6.61-6.33,2.87-1.52,6.21-2.27,10.04-2.27s7.18.76,10.07,2.27c2.89,1.51,5.11,3.62,6.65,6.33,1.54,2.7,2.31,5.85,2.31,9.44s-.77,6.74-2.31,9.44c-1.54,2.71-3.75,4.82-6.65,6.33-2.89,1.52-6.25,2.27-10.07,2.27ZM174.06,321.26c1.59,0,3.17.29,4.76.87,1.58.58,2.96,1.43,4.13,2.55l-4.62,8.04c-.98-.61-1.89-1.05-2.73-1.33-.84-.28-1.73-.42-2.66-.42-2.33,0-4.17.75-5.53,2.24-1.35,1.49-2.03,3.68-2.03,6.58v16.79h-10.98v-34.55h9.58l.84,4.34c2.24-3.4,5.32-5.11,9.23-5.11ZM135.17,322.03h10.98v34.55h-10.98v-34.55ZM140.69,318.6c-1.91,0-3.46-.56-4.65-1.68-1.19-1.12-1.78-2.54-1.78-4.27s.61-3.22,1.82-4.34c1.21-1.12,2.75-1.68,4.62-1.68s3.4.56,4.62,1.68c1.21,1.12,1.82,2.56,1.82,4.34s-.59,3.15-1.78,4.27c-1.19,1.12-2.74,1.68-4.65,1.68ZM119.22,322.03h11.68l-14.62,34.55h-11.19l-14.69-34.55h11.96l4.13,10.42,4.27,12.52,4.27-12.52,4.2-10.42ZM73.9,321.26c4.29,0,7.71,1.4,10.25,4.2,2.54,2.8,3.81,6.67,3.81,11.61v19.51h-10.98v-18.89c0-2.24-.56-3.99-1.68-5.25-1.12-1.26-2.66-1.89-4.62-1.89-2.14,0-3.87.72-5.18,2.17-1.31,1.45-1.96,3.33-1.96,5.67v18.19h-10.98v-34.55h9.51l.7,4.06c1.35-1.54,2.97-2.73,4.86-3.57,1.89-.84,3.98-1.26,6.26-1.26ZM18.78,346.93h27v9.65H7.66v-48.96h37.35v9.58h-26.23v9.93h24.83v9.23h-24.83v10.56Z"/>
  <path class="st2" d="M417.12,404.38c0,4.34,1.32,7.75,3.95,10.25,2.64,2.5,6.26,3.74,10.88,3.74,2.7,0,5.18-.62,7.41-1.85,2.24-1.24,4.01-2.93,5.32-5.07,1.3-2.15,1.96-4.5,1.96-7.07,0-2.8-.61-5.26-1.82-7.38-1.21-2.12-2.94-3.77-5.18-4.93-2.24-1.17-4.8-1.75-7.69-1.75s-5.4.61-7.66,1.82c-2.26,1.21-4.02,2.88-5.28,5-1.26,2.12-1.89,4.53-1.89,7.24M438.52,419.49c3.4.79,6.04,2.18,7.9,4.16,1.87,1.98,2.8,4.4,2.8,7.24,0,2.47-.72,4.65-2.17,6.54-1.45,1.89-3.47,3.36-6.09,4.41-2.61,1.05-5.62,1.57-9.02,1.57s-6.19-.58-8.78-1.75c-2.59-1.17-4.59-2.79-6.01-4.86-1.42-2.08-2.13-4.42-2.13-7.03h2.94c0,2.05.59,3.91,1.78,5.56,1.19,1.66,2.84,2.95,4.97,3.88,2.12.93,4.54,1.4,7.24,1.4,4.34,0,7.81-.89,10.42-2.66,2.61-1.77,3.92-4.13,3.92-7.06s-1.31-5.29-3.92-7.07c-2.61-1.77-6.08-2.66-10.42-2.66-3.59,0-6.73-.69-9.41-2.06-2.68-1.37-4.74-3.32-6.19-5.84-1.45-2.52-2.17-5.48-2.17-8.88,0-3.17.77-6.04,2.31-8.6,1.54-2.56,3.66-4.58,6.37-6.05,2.7-1.47,5.71-2.2,9.02-2.2,1.96,0,3.92.28,5.88.84,1.96.56,3.59,1.31,4.9,2.24l4.41-5.32,2.17,1.68-4.48,5.32c1.77,2.14,3.02,4.1,3.74,5.87.72,1.77,1.08,3.85,1.08,6.23,0,3.59-1.03,6.79-3.08,9.58-2.05,2.8-4.71,4.64-7.97,5.53ZM390.75,387.53c4.57,0,8.15,1.33,10.74,3.99,2.59,2.66,3.88,6.37,3.88,11.12v19.93h-2.94v-19.79c0-4.01-1.03-7.09-3.08-9.23-2.05-2.14-4.97-3.22-8.74-3.22-2.56,0-4.86.57-6.89,1.71-2.03,1.14-3.6,2.7-4.72,4.69-1.12,1.98-1.68,4.18-1.68,6.61v19.23h-2.94v-34.55h2.8v6.78c1.35-2.24,3.22-4.01,5.59-5.32,2.38-1.3,5.04-1.96,7.97-1.96ZM359.9,388.02h2.94v34.55h-2.94v-34.55ZM361.37,379.83c-.79,0-1.43-.25-1.92-.73-.49-.49-.73-1.11-.73-1.85s.25-1.38.73-1.89c.49-.51,1.13-.77,1.92-.77.75,0,1.38.26,1.89.77.51.51.77,1.14.77,1.89s-.26,1.36-.77,1.85c-.51.49-1.14.73-1.89.73ZM346.68,387.67c2.75,0,5.11.63,7.06,1.89l-1.33,2.52c-1.72-1.03-3.66-1.54-5.81-1.54s-4.11.63-5.91,1.89c-1.79,1.26-3.2,2.98-4.23,5.18-1.03,2.19-1.54,4.59-1.54,7.2v17.77h-2.94v-34.55h2.8v7.69c1.21-2.52,2.86-4.49,4.93-5.91,2.08-1.42,4.4-2.13,6.96-2.13ZM305.98,390.12c-4.06,0-7.39,1.25-10,3.74-2.61,2.49-4.08,5.77-4.41,9.83h28.89c0-2.66-.62-5.01-1.85-7.07-1.24-2.05-2.94-3.65-5.11-4.79-2.17-1.14-4.68-1.71-7.52-1.71ZM305.98,387.39c3.45,0,6.49.71,9.13,2.13,2.63,1.42,4.66,3.42,6.09,5.98,1.42,2.56,2.13,5.53,2.13,8.88,0,.89-.02,1.56-.07,2.03h-31.69c.33,4.34,1.79,7.76,4.41,10.28,2.61,2.52,5.99,3.78,10.14,3.78,2.56,0,5.01-.51,7.34-1.54,2.33-1.03,4.13-2.38,5.39-4.06l2.1,1.75c-1.63,2.05-3.76,3.67-6.37,4.86-2.61,1.19-5.43,1.78-8.46,1.78-3.36,0-6.37-.77-9.02-2.31-2.66-1.54-4.73-3.67-6.23-6.4-1.49-2.73-2.24-5.82-2.24-9.27s.73-6.53,2.2-9.23c1.47-2.7,3.52-4.83,6.16-6.37,2.63-1.54,5.63-2.31,8.99-2.31ZM264.92,390.12c-4.06,0-7.39,1.25-10,3.74-2.61,2.49-4.08,5.77-4.41,9.83h28.89c0-2.66-.62-5.01-1.85-7.07-1.24-2.05-2.94-3.65-5.11-4.79-2.17-1.14-4.68-1.71-7.52-1.71ZM264.92,387.39c3.45,0,6.49.71,9.13,2.13,2.64,1.42,4.66,3.42,6.09,5.98,1.42,2.56,2.13,5.53,2.13,8.88,0,.89-.02,1.56-.07,2.03h-31.69c.33,4.34,1.79,7.76,4.41,10.28,2.61,2.52,5.99,3.78,10.14,3.78,2.56,0,5.01-.51,7.34-1.54,2.33-1.03,4.13-2.38,5.39-4.06l2.1,1.75c-1.63,2.05-3.76,3.67-6.37,4.86-2.61,1.19-5.43,1.78-8.46,1.78-3.36,0-6.37-.77-9.02-2.31-2.66-1.54-4.73-3.67-6.23-6.4-1.49-2.73-2.24-5.82-2.24-9.27s.73-6.53,2.2-9.23c1.47-2.7,3.52-4.83,6.16-6.37,2.64-1.54,5.63-2.31,8.99-2.31ZM224.14,387.53c4.57,0,8.15,1.33,10.74,3.99,2.59,2.66,3.88,6.37,3.88,11.12v19.93h-2.94v-19.79c0-4.01-1.03-7.09-3.08-9.23-2.05-2.14-4.97-3.22-8.74-3.22-2.56,0-4.86.57-6.89,1.71-2.03,1.14-3.6,2.7-4.72,4.69-1.12,1.98-1.68,4.18-1.68,6.61v19.23h-2.94v-34.55h2.8v6.78c1.35-2.24,3.22-4.01,5.59-5.32,2.38-1.3,5.04-1.96,7.97-1.96ZM193.29,388.02h2.94v34.55h-2.94v-34.55ZM194.76,379.83c-.79,0-1.43-.25-1.92-.73s-.73-1.11-.73-1.85.25-1.38.73-1.89c.49-.51,1.13-.77,1.92-.77.75,0,1.37.26,1.89.77.51.51.77,1.14.77,1.89s-.26,1.36-.77,1.85c-.51.49-1.14.73-1.89.73ZM151.47,404.38c0,4.34,1.32,7.75,3.95,10.25,2.63,2.5,6.26,3.74,10.88,3.74,2.7,0,5.18-.62,7.41-1.85,2.24-1.24,4.01-2.93,5.32-5.07,1.3-2.15,1.96-4.5,1.96-7.07,0-2.8-.61-5.26-1.82-7.38-1.21-2.12-2.94-3.77-5.18-4.93-2.24-1.17-4.8-1.75-7.69-1.75s-5.4.61-7.66,1.82c-2.26,1.21-4.02,2.88-5.28,5-1.26,2.12-1.89,4.53-1.89,7.24ZM172.87,419.49c3.4.79,6.04,2.18,7.9,4.16,1.87,1.98,2.8,4.4,2.8,7.24,0,2.47-.72,4.65-2.17,6.54-1.45,1.89-3.47,3.36-6.09,4.41-2.61,1.05-5.62,1.57-9.02,1.57s-6.19-.58-8.78-1.75c-2.59-1.17-4.59-2.79-6.01-4.86-1.42-2.08-2.13-4.42-2.13-7.03h2.94c0,2.05.59,3.91,1.78,5.56,1.19,1.66,2.84,2.95,4.97,3.88,2.12.93,4.54,1.4,7.24,1.4,4.34,0,7.81-.89,10.42-2.66,2.61-1.77,3.92-4.13,3.92-7.06s-1.31-5.29-3.92-7.07c-2.61-1.77-6.09-2.66-10.42-2.66-3.59,0-6.73-.69-9.41-2.06-2.68-1.37-4.74-3.32-6.19-5.84-1.45-2.52-2.17-5.48-2.17-8.88,0-3.17.77-6.04,2.31-8.6,1.54-2.56,3.66-4.58,6.37-6.05,2.7-1.47,5.71-2.2,9.02-2.2,1.96,0,3.92.28,5.88.84,1.96.56,3.59,1.31,4.9,2.24l4.41-5.32,2.17,1.68-4.48,5.32c1.77,2.14,3.02,4.1,3.74,5.87.72,1.77,1.08,3.85,1.08,6.23,0,3.59-1.03,6.79-3.08,9.58-2.05,2.8-4.71,4.64-7.97,5.53ZM125.1,387.53c4.57,0,8.15,1.33,10.74,3.99,2.59,2.66,3.88,6.37,3.88,11.12v19.93h-2.94v-19.79c0-4.01-1.03-7.09-3.08-9.23-2.05-2.14-4.97-3.22-8.74-3.22-2.56,0-4.86.57-6.89,1.71-2.03,1.14-3.6,2.7-4.72,4.69-1.12,1.98-1.68,4.18-1.68,6.61v19.23h-2.94v-34.55h2.8v6.78c1.35-2.24,3.22-4.01,5.59-5.32,2.38-1.3,5.04-1.96,7.97-1.96ZM67.81,419.63h31.4v2.94h-34.48v-48.96h33.57v2.94h-30.5v19.8h29.03v2.94h-29.03v20.35Z"/>
</svg>