<svg width="40" height="40" viewBox="0 0 40 40" fill="none" xmlns="http://www.w3.org/2000/svg">
<g clip-path="url(#clip0_173_92)">
<path d="M39.7767 13.4409C39.5667 13.163 39.2466 13.0036 38.8983 13.0036H30.6471L28.8672 10.5481C30.0538 10.0721 30.8617 8.91683 30.8617 7.59072V6.4286C30.8617 4.67079 29.4316 3.24072 27.6738 3.24072H27.2356V7.15245H24.4011H23.762H16.4518H15.6339H12.3831V3.24072H11.9448C10.187 3.24072 8.75693 4.67079 8.75693 6.4286V7.59072C8.75693 9.03893 9.73927 10.2827 11.0863 10.6605L9.38795 13.0036H1.10169C0.753354 13.0036 0.433243 13.163 0.223312 13.4409C0.0133813 13.7189 -0.0524467 14.0703 0.0426576 14.4054L0.409664 15.6972C0.890445 17.3897 2.4349 18.5364 4.16466 18.5362C4.28729 18.5362 4.41123 18.5304 4.53544 18.5187L7.54372 18.2338C8.12758 18.1785 8.66884 17.9115 9.06801 17.4819C9.27312 17.2612 9.53968 17.1082 9.82902 17.0398L13.3962 36.3982V36.7596H13.4628H26.5723H26.6457V36.3613L30.2044 17.0486C30.481 17.1207 30.7353 17.2703 30.9319 17.4819C31.3311 17.9115 31.8724 18.1785 32.4563 18.2338L35.4646 18.5187C37.3403 18.6958 39.0756 17.5097 39.5905 15.6972L39.9575 14.4054C40.0526 14.0703 39.9867 13.7188 39.7767 13.4409ZM28.1121 8.02898V4.15898C29.1777 4.36436 29.9852 5.304 29.9852 6.42869V7.5908C29.9852 8.62862 29.3026 9.52094 28.3295 9.80634L27.6087 8.812C27.3983 8.51476 27.149 8.25311 26.8718 8.02907L28.1121 8.02898ZM16.4518 8.02898H23.762H24.4011C25.3902 8.02898 26.3219 8.51099 26.8961 9.32232L29.8298 13.3696L26.9119 15.242C24.3587 16.8803 22.8344 19.6696 22.8344 22.7032V30.0024H17.2006V22.7032C17.2006 19.6696 15.6763 16.8803 13.1231 15.242L10.2052 13.3696L13.1418 9.31828C13.166 9.28401 13.1918 9.25123 13.2173 9.21818C13.2348 9.19548 13.2523 9.1726 13.2704 9.15043C13.29 9.12641 13.3104 9.10318 13.3307 9.07986C13.3507 9.05699 13.3705 9.03393 13.3911 9.01167C13.4099 8.99133 13.4294 8.9717 13.4487 8.95198C13.4723 8.92787 13.4958 8.90368 13.52 8.88036C13.5367 8.86441 13.5539 8.84916 13.5708 8.83365C13.599 8.80779 13.6273 8.78193 13.6564 8.75721C13.6697 8.7459 13.6835 8.73512 13.697 8.72408C13.7307 8.69647 13.7646 8.66912 13.7993 8.643C13.8086 8.63599 13.8182 8.62941 13.8276 8.62258C13.8671 8.59365 13.907 8.56516 13.9479 8.53816C13.9528 8.53492 13.9579 8.53185 13.9629 8.52861C14.0084 8.4989 14.0545 8.47006 14.1014 8.44289C14.1019 8.44262 14.1024 8.44236 14.1028 8.4421C14.4093 8.2646 14.7459 8.1403 15.0969 8.07702C15.1006 8.07632 15.1043 8.07597 15.1079 8.07535C15.1626 8.06571 15.2176 8.0573 15.273 8.05063C15.2915 8.04844 15.3103 8.04739 15.3289 8.04555C15.3698 8.04143 15.4107 8.03696 15.4519 8.03451C15.5123 8.03091 15.5729 8.02898 15.6337 8.02898H16.4518ZM9.63356 7.59072V6.4286C9.63356 5.30392 10.441 4.36427 11.5066 4.1589V8.0289H13.1626C13.1456 8.04266 13.1285 8.05633 13.1117 8.07036C13.1072 8.07413 13.1025 8.07763 13.0981 8.0814C13.0487 8.12304 13.0006 8.16634 12.9533 8.21052C12.9429 8.22016 12.9324 8.22936 12.9221 8.23909C12.8811 8.27818 12.8413 8.31868 12.802 8.3597C12.7863 8.37601 12.7702 8.39196 12.7548 8.40861C12.7215 8.44446 12.6893 8.48154 12.6573 8.51871C12.6372 8.54211 12.6168 8.56525 12.5971 8.58909C12.5707 8.62144 12.5451 8.65466 12.5196 8.68788C12.5034 8.70891 12.4863 8.72907 12.4705 8.75055C12.4557 8.77062 12.4411 8.79078 12.4296 8.80717C12.4295 8.80735 12.4294 8.80744 12.4293 8.80761L11.6499 9.88286C10.5091 9.73744 9.63356 8.75528 9.63356 7.59072ZM10.1753 16.1228C9.51382 16.1228 8.87623 16.4007 8.42595 16.8853C8.17333 17.1572 7.83069 17.3262 7.46114 17.3612L4.45287 17.6461C2.9979 17.7841 1.65207 16.8635 1.25281 15.4577L0.885799 14.1659C0.85924 14.0724 0.897457 14.0026 0.922614 13.9693C0.94777 13.936 1.00448 13.8801 1.1016 13.8801H9.37761L12.6497 15.9797C14.9505 17.4561 16.324 19.9695 16.324 22.7032V30.0036C14.984 30.0249 13.8571 30.9358 13.5084 32.1707L10.5512 16.1228H10.1753V16.1228ZM14.2727 35.8831V32.978C14.2727 31.8205 15.2144 30.8788 16.3719 30.8788H23.67C24.8275 30.8788 25.7691 31.8205 25.7691 32.978V35.8831H14.2727ZM39.1142 14.1659L38.7472 15.4577C38.3479 16.8635 37.0021 17.7841 35.5472 17.6461L32.539 17.3612C32.1694 17.3262 31.8268 17.1572 31.5741 16.8853C31.1316 16.409 30.5046 16.1313 29.8539 16.1234L29.4844 16.1188L26.5293 32.1561C26.1752 30.9266 25.0486 30.0217 23.7109 30.0034V22.7032C23.7109 19.9695 25.0845 17.4561 27.3852 15.9797L30.6572 13.8801H38.8983C38.9955 13.8801 39.0522 13.936 39.0772 13.9693C39.1025 14.0026 39.1407 14.0724 39.1142 14.1659Z" fill="#1F3B90"/>
<path d="M13.7054 21.1031C14.2303 21.1031 14.6557 20.6777 14.6557 20.1529C14.6557 19.6281 14.2303 19.2026 13.7054 19.2026C13.1806 19.2026 12.7552 19.6281 12.7552 20.1529C12.7552 20.6777 13.1806 21.1031 13.7054 21.1031Z" fill="#1F3B90"/>
<path d="M26.3296 21.1031C26.8545 21.1031 27.2799 20.6777 27.2799 20.1529C27.2799 19.6281 26.8545 19.2026 26.3296 19.2026C25.8048 19.2026 25.3794 19.6281 25.3794 20.1529C25.3794 20.6777 25.8048 21.1031 26.3296 21.1031Z" fill="#1F3B90"/>
<path d="M17.458 32.6201C17.0032 32.6201 16.631 32.9923 16.631 33.4471V33.8206C16.631 34.2755 17.0032 34.6476 17.458 34.6476C17.9128 34.6476 18.285 34.2755 18.285 33.8206V33.4471C18.285 32.9923 17.9129 32.6201 17.458 32.6201Z" fill="#1F3B90"/>
<path d="M22.577 32.6201C22.1222 32.6201 21.75 32.9923 21.75 33.4471V33.8206C21.75 34.2755 22.1222 34.6476 22.577 34.6476C23.0318 34.6476 23.404 34.2755 23.404 33.8206V33.4471C23.404 32.9923 23.0318 32.6201 22.577 32.6201Z" fill="#1F3B90"/>
</g>
<defs>
<clipPath id="clip0_173_92">
<rect width="40" height="40" fill="white"/>
</clipPath>
</defs>
</svg>
