<svg width="36" height="28" viewBox="0 0 36 28" fill="none" xmlns="http://www.w3.org/2000/svg">
<path d="M35.0198 23.4729C34.9936 23.4346 34.9665 23.3972 34.9384 23.3603C34.4067 22.6601 33.5586 22.2061 32.6049 22.2061H28.2183V21.3092H30.827H31.722H33.0523V13.8976L31.722 12.8912V2.97198H31.0485V0.200348H28.3614V2.97198H22.3529L16.8669 12.0188V17.4327H15.0091V19.0099H14.569L15.5793 8.24662C15.5871 8.1646 15.5889 8.08272 15.5863 8.00114C15.5898 7.87803 15.5823 7.75412 15.5623 7.63094C15.4723 7.07773 15.148 6.58449 14.6728 6.27771L6.19617 0.801257C6.11174 0.689836 6.01523 0.586573 5.90753 0.493747C5.47964 0.124867 4.91004 -0.0506434 4.34543 0.0127107C3.78061 0.0757709 3.26553 0.37233 2.93228 0.826025C2.59904 1.27987 2.47426 1.85468 2.59009 2.40312L4.05717 9.35149L0 13.132L3.74548 16.2435L4.08894 18.8458L5.87404 18.617L11.2698 14.144L11.0263 12.2989L11.0216 12.2994L10.8385 11.0215L9.95224 11.1448L10.1321 12.4L6.82611 12.7739L6.64591 4.17453L11.6022 8.86083L12.5734 19.2085C12.2638 19.4159 12.0598 19.7658 12.0598 20.1618C12.0598 20.797 12.5842 21.3137 13.2287 21.3137H16.4194V21.3092H16.867H17.762H20.3706V22.2061H15.9315C14.9778 22.2061 14.1296 22.6601 13.5979 23.3603C13.5699 23.3972 13.5428 23.4347 13.5166 23.4729C13.3856 23.6638 13.2772 23.871 13.1954 24.0907C13.0809 24.3984 13.0183 24.7305 13.0183 25.0768C13.0183 25.423 13.0809 25.7551 13.1954 26.0627C13.2772 26.2824 13.3856 26.4897 13.5166 26.6806C13.5428 26.7188 13.5699 26.7563 13.5979 26.7931C14.1296 27.4933 14.9778 27.9473 15.9315 27.9473H32.6049C33.5586 27.9473 34.4068 27.4933 34.9385 26.7931C34.9666 26.7563 34.9936 26.7188 35.0199 26.6806C35.1246 26.5279 35.2149 26.3647 35.2887 26.193C35.4363 25.8497 35.518 25.4724 35.518 25.0767C35.518 24.6809 35.4363 24.3037 35.2887 23.9604C35.2149 23.7888 35.1245 23.6256 35.0198 23.4729ZM32.6048 27.0654C31.492 27.0654 30.5867 26.1733 30.5867 25.0768C30.5867 23.9802 31.492 23.088 32.6048 23.088C33.3351 23.088 33.976 23.4723 34.3304 24.0463C34.5159 24.347 34.623 24.6998 34.623 25.0768C34.623 25.4537 34.5159 25.8065 34.3304 26.1072C33.976 26.6812 33.3351 27.0654 32.6048 27.0654ZM14.2059 26.1072C14.0203 25.8065 13.9133 25.4537 13.9133 25.0768C13.9133 24.6998 14.0203 24.347 14.2059 24.0463C14.5602 23.4722 15.2012 23.088 15.9314 23.088C17.0442 23.088 17.9496 23.9802 17.9496 25.0768C17.9496 26.1733 17.0442 27.0654 15.9314 27.0654C15.2012 27.0654 14.5602 26.6812 14.2059 26.1072ZM18.7527 24.36H19.3183C19.2124 24.5708 19.1512 24.8073 19.1512 25.0581C19.1512 25.3089 19.2123 25.5453 19.3183 25.7562H18.7614C18.8153 25.5382 18.8446 25.3108 18.8446 25.0768C18.8446 24.8294 18.8127 24.5892 18.7527 24.36ZM29.7748 25.7562H29.1722C29.2782 25.5453 29.3393 25.3089 29.3393 25.0581C29.3393 24.8073 29.2782 24.5708 29.1722 24.36H29.7836C29.7235 24.5891 29.6917 24.8294 29.6917 25.0768C29.6917 25.3109 29.7209 25.5383 29.7748 25.7562ZM28.4443 25.0581C28.4443 25.443 28.1266 25.7562 27.736 25.7562C27.3454 25.7562 27.0275 25.443 27.0275 25.0581C27.0275 24.6732 27.3454 24.36 27.736 24.36C28.1266 24.36 28.4443 24.6732 28.4443 25.0581ZM26.2996 25.7562H25.7045C25.8104 25.5453 25.8716 25.3089 25.8716 25.0581C25.8716 24.8073 25.8104 24.5708 25.7045 24.36H26.2997C26.1937 24.5708 26.1325 24.8073 26.1325 25.0581C26.1325 25.3089 26.1937 25.5453 26.2996 25.7562ZM24.9765 25.0581C24.9765 25.443 24.6587 25.7562 24.2681 25.7562C23.8775 25.7562 23.5596 25.443 23.5596 25.0581C23.5596 24.6732 23.8775 24.36 24.2681 24.36C24.6587 24.36 24.9765 24.6732 24.9765 25.0581ZM22.8318 25.7562H22.1909C22.2969 25.5453 22.3581 25.3089 22.3581 25.0581C22.3581 24.8073 22.2969 24.5708 22.1909 24.36H22.8318C22.7259 24.5708 22.6647 24.8073 22.6647 25.0581C22.6646 25.3089 22.7259 25.5453 22.8318 25.7562ZM21.4631 25.0581C21.4631 25.443 21.1453 25.7562 20.7547 25.7562C20.3641 25.7562 20.0462 25.443 20.0462 25.0581C20.0462 24.6732 20.3641 24.36 20.7547 24.36C21.1453 24.36 21.4631 24.6732 21.4631 25.0581ZM18.3741 26.6381H30.1622C30.2634 26.7912 30.3788 26.9342 30.5069 27.0654H18.0293C18.1574 26.9343 18.2729 26.7912 18.3741 26.6381ZM32.1573 14.3325V20.4272H31.722V14.0032L32.1573 14.3325ZM30.1535 1.08231V1.67881H29.2564V1.08231H30.1535ZM29.2563 2.56077H30.1534V2.97198H29.2563V2.56077ZM12.4356 8.16533C12.4059 7.84937 12.5091 7.54619 12.7261 7.31174C12.943 7.07729 13.2398 6.94815 13.5618 6.94815C13.8838 6.94815 14.1807 7.07729 14.3976 7.31174C14.5797 7.50856 14.6804 7.75397 14.691 8.01452C14.6778 8.24147 14.5947 8.45807 14.4465 8.64137C14.2305 8.9086 13.9078 9.06192 13.5612 9.06192C13.2686 9.06192 12.9909 8.9516 12.7791 8.75139L12.4627 8.45219L12.4356 8.16533ZM13.5612 9.9438C13.9116 9.9438 14.2482 9.85627 14.5446 9.69406L13.6701 19.0098H13.4536L12.579 9.69303C12.8768 9.85634 13.213 9.9438 13.5612 9.9438ZM3.65732 1.34315C3.84609 1.08613 4.12623 0.924878 4.4462 0.889085C4.49028 0.884161 4.53406 0.881662 4.57754 0.881662C4.85007 0.881662 5.10925 0.977428 5.31831 1.15757C5.56071 1.36652 5.6978 1.65624 5.70451 1.97353L5.93274 12.8619L5.71749 12.8859L3.46631 2.22356C3.40067 1.91289 3.46847 1.60024 3.65732 1.34315ZM5.49843 17.7758L4.86089 17.8575L4.34417 13.9422L10.2524 13.2742L10.3191 13.7794L5.49843 17.7758ZM3.33951 13.1682L3.57438 14.948L1.34304 13.0943L4.27122 10.3659L4.82732 12.9999L3.33951 13.1682ZM6.60266 2.11846L12.8897 6.18033C12.577 6.28896 12.292 6.47182 12.0647 6.71759C11.8261 6.97542 11.6626 7.28881 11.5859 7.62337L6.61959 2.92759L6.60266 2.11846ZM12.9547 20.1618C12.9547 20.0129 13.0775 19.8918 13.2287 19.8918H14.4861H15.0091V20.4317H13.2287C13.0775 20.4317 12.9547 20.3107 12.9547 20.1618ZM16.8669 20.4272H16.4193V19.0099H15.9041V18.3146H16.8669V20.4272ZM17.7619 20.4272V19.8873H20.1033V19.0054H17.7619V17.4327V12.2623L22.8606 3.85401H28.3613H30.827V12.2142V19.0054H21.2067V19.8874H30.827V20.4273H28.2183H20.3705H17.7619V20.4272ZM21.2655 21.3092H27.3234V22.2061H21.2655V21.3092ZM28.2183 23.0881H30.5069C30.3892 23.2086 30.2816 23.3388 30.1865 23.4781H18.3498C18.2547 23.3388 18.147 23.2086 18.0293 23.0881H20.3705H28.2183Z" fill="#1F3B90"/>
<path d="M32.6048 23.7866C31.8828 23.7866 31.2954 24.3654 31.2954 25.0769C31.2954 25.7885 31.8828 26.3672 32.6048 26.3672C33.3269 26.3672 33.9142 25.7885 33.9142 25.0769C33.9142 24.3654 33.3269 23.7866 32.6048 23.7866ZM32.6048 25.4852C32.3764 25.4852 32.1905 25.302 32.1905 25.0769C32.1905 24.8517 32.3764 24.6685 32.6048 24.6685C32.8333 24.6685 33.0192 24.8517 33.0192 25.0769C33.0192 25.302 32.8333 25.4852 32.6048 25.4852Z" fill="#1F3B90"/>
<path d="M15.9316 23.7866C15.2096 23.7866 14.6222 24.3654 14.6222 25.0769C14.6222 25.7885 15.2096 26.3672 15.9316 26.3672C16.6536 26.3672 17.241 25.7885 17.241 25.0769C17.241 24.3654 16.6536 23.7866 15.9316 23.7866ZM15.9316 25.4852C15.7032 25.4852 15.5172 25.302 15.5172 25.0769C15.5172 24.8517 15.7031 24.6685 15.9316 24.6685C16.1602 24.6685 16.346 24.8517 16.346 25.0769C16.346 25.302 16.1601 25.4852 15.9316 25.4852Z" fill="#1F3B90"/>
<path d="M25.9582 15.5403H29.5247V13.0967H25.9582V15.5403ZM26.8532 13.9787H28.6297V14.6584H26.8532V13.9787Z" fill="#1F3B90"/>
<path d="M29.5247 4.5332H23.4613L18.6407 12.5832H29.5247V4.5332ZM23.9725 5.41516H25.1607V11.7013H20.2082L23.9725 5.41516ZM28.6297 11.7013H26.0556V5.41516H28.6297V11.7013Z" fill="#1F3B90"/>
</svg>
