<?xml version="1.0" ?><svg viewBox="0 0 512 512" xmlns="http://www.w3.org/2000/svg"><g id="Recycle"><path d="M441.8909,325.1144l-25.7715-44.6356a10.0016,10.0016,0,1,0-17.3242,10l26.1523,45.2942c7.3249,12.6867,8.5608,28.4478,1.7737,41.4306a41.1347,41.1347,0,0,1-36.8372,22.367h-95.24V381.8173a10.0046,10.0046,0,0,0-15.0067-8.6646l-48.0732,27.7552a10.0045,10.0045,0,0,0,0,17.3285l48.0732,27.7545a10.0042,10.0042,0,0,0,15.0067-8.664V419.5706h95.24a60.9136,60.9136,0,0,0,53.7824-31.6583C454.494,368.4439,453.03,344.4058,441.8909,325.1144Z"/><path d="M257.8394,84.692c14.6386.6141,27.6721,9.5667,34.9981,22.2553l46.734,80.9436.0007.0006-15.3443,8.8593a10.0258,10.0258,0,0,0,0,17.3657l48.0084,27.7173a10.0259,10.0259,0,0,0,15.0391-8.6829l-.0006-55.4346a10.0258,10.0258,0,0,0-15.0391-8.6828L356.8952,177.89l-46.36-80.296c-11.1426-19.2981-31.239-32.5837-53.52-32.9328a60.9211,60.9211,0,0,0-54.29,30.7489L175.69,142.2366a10.0016,10.0016,0,0,0,17.3242,10L220.05,105.41A41.1354,41.1354,0,0,1,257.8394,84.692Z"/><path d="M176.1878,399.5706H123.9173c-14.1193,0-27.9767-6.2409-35.95-17.8931a41.1836,41.1836,0,0,1-1.7987-44.3725l47.6215-82.48L149.231,263.74A9.9591,9.9591,0,0,0,164.17,255.115V199.4473a9.9594,9.9594,0,0,0-14.9389-8.6249l-48.2093,27.8345a9.9591,9.9591,0,0,0,0,17.25l15.445,8.9173-.0006.0006-46.3574,80.29c-11.1383,19.2914-12.6026,43.3295-1.7756,62.7979a60.9136,60.9136,0,0,0,53.7824,31.6583h54.0723a10,10,0,1,0,0-20Z"/></g></svg>