<?xml version="1.0" ?><svg viewBox="0 0 512 512" xmlns="http://www.w3.org/2000/svg"><g id="recycle_bin"><path d="M396.2705,124.0942H375.519L355.9932,88.4634a62.5079,62.5079,0,0,0-57.1-37.0679H213.1064a62.5079,62.5079,0,0,0-57.1,37.0679L136.481,124.0942H115.73a10,10,0,0,0-10,10v50.92a10,10,0,0,0,10,10h18.6116l22.6882,257.7426a10.0011,10.0011,0,0,0,9.9619,9.1231H345.0088a10.0011,10.0011,0,0,0,9.9619-9.1231l22.6882-257.7426h18.6116a10,10,0,0,0,10-10V134.0942A10,10,0,0,0,396.2705,124.0942Zm-60.42,317.7852H176.1494l-21.73-246.8657H357.5806Zm50.42-266.8657H125.73V144.0942h77.0449a10,10,0,0,0,0-20H159.2871l14.4649-26.395c.1435-.2617.2753-.53.3945-.8037a42.5089,42.5089,0,0,1,38.96-25.5h85.7872a42.5089,42.5089,0,0,1,38.96,25.5c.1192.2734.251.542.3945.8037l14.4649,26.395H313.2842a10,10,0,0,0,0,20h72.9863Z"/><path d="M233.9414,325.1689l-23.5947,10.9224a9.9988,9.9988,0,0,0-4.7051,13.6211L217.4629,372.87a10,10,0,1,0,17.8125-9.0928l-.5982-1.1718A63.0677,63.0677,0,0,0,293.43,349.7212a10,10,0,1,0-13.0938-15.1182,43.1033,43.1033,0,0,1-38.8684,9.121l.8763-.4056a10,10,0,1,0-8.4024-18.1495Z"/><path d="M191.4648,318.0181a10,10,0,1,0,19.3223-5.1592,43.1064,43.1064,0,0,1,8.8018-38.9422l-.0186.9642a10,10,0,0,0,9.8057,10.1909c.0654.0014.1308.0019.1963.0019a10,10,0,0,0,9.9941-9.8071l.501-25.9961a10,10,0,0,0-10.19-10.1909l-25.9961.5a10,10,0,0,0,.3847,19.9961l1.3142-.0253A63.1655,63.1655,0,0,0,191.4648,318.0181Z"/><path d="M266.9766,261.5054a43.1048,43.1048,0,0,1,26.8557,29.5415l-.78-.5684A10,10,0,0,0,281.2715,306.64l21.01,15.3169a9.9993,9.9993,0,0,0,14.1915-2.5048l14.498-21.584a10,10,0,1,0-16.6016-11.1514l-.7343,1.0933A63.163,63.163,0,0,0,273.83,242.7163a10,10,0,1,0-6.8535,18.7891Z"/></g></svg>