<svg width="32" height="44" viewBox="0 0 32 44" fill="none" xmlns="http://www.w3.org/2000/svg">
<path d="M27.7977 40.8769C27.6546 40.783 27.4639 40.689 27.2732 40.595C27.0824 40.5011 26.844 40.2661 26.6056 40.0312C26.1765 39.6084 25.652 39.1385 24.9845 38.9036C24.5077 38.7626 23.9832 38.8096 23.5064 38.8566C23.0773 38.9036 22.6959 38.9506 22.3621 38.9036C22.076 38.8566 21.7899 38.6687 21.4562 38.4807C21.4562 38.1988 21.5992 33.5473 25.4613 31.8558C25.652 31.7619 25.7951 31.5269 25.7474 31.339C25.6997 31.1041 25.509 30.9631 25.2706 30.9631C25.2229 30.9631 22.5528 31.0101 20.1688 32.4196C20.3595 31.0571 20.3595 28.6608 18.9291 26.8754C18.8337 26.7345 18.643 26.6875 18.4523 26.7345C18.2616 26.7814 18.1185 26.9224 18.1185 27.1103C18.1185 27.1573 17.3557 31.5269 15.3054 33.6882C15.6392 28.3319 17.9278 21.3312 20.2642 20.5324C20.4549 20.4385 21.1224 20.2505 21.9806 21.1902C21.5038 21.848 20.5026 23.5395 21.5038 25.4189C22.6482 27.6272 26.1288 29.1307 26.2719 29.2247C26.3196 29.2716 26.4149 29.2716 26.4626 29.2716C26.558 29.2716 26.6056 29.2716 26.6533 29.2247C26.7964 29.1777 26.8917 29.0367 26.8917 28.8958C26.9394 28.7548 27.75 25.09 26.6533 22.8817C25.6997 21.0023 23.6971 20.7674 22.8866 20.7204C21.7422 19.3578 20.6933 19.3578 19.9781 19.5927C17.5941 20.3915 15.6868 25.4189 14.8286 30.1174C13.9703 25.4189 12.0631 20.3915 9.67911 19.5927C8.96391 19.3578 7.91494 19.3578 6.77061 20.7204C5.96005 20.7204 3.95747 21.0023 3.00386 22.8817C1.85953 25.09 2.71778 28.7078 2.76546 28.8958C2.81314 29.0367 2.9085 29.1307 3.00386 29.2247C3.05154 29.2716 3.1469 29.2716 3.19459 29.2716C3.24227 29.2716 3.33763 29.2716 3.38531 29.2247C3.52835 29.1777 7.00901 27.6272 8.15334 25.4189C9.10695 23.5395 8.10566 21.801 7.62886 21.1432C8.48711 20.2035 9.10695 20.4385 9.29767 20.4854C11.634 21.2842 13.9227 28.238 14.2564 33.5943C12.2062 31.5269 11.4433 27.2043 11.4433 27.1573C11.3956 26.9694 11.2526 26.8284 11.1095 26.7814C10.9188 26.7345 10.7281 26.7814 10.6327 26.9224C9.20231 28.7078 9.24999 31.1041 9.39303 32.4666C7.00901 31.0101 4.33891 31.0101 4.29123 31.0101C4.05283 31.0101 3.86211 31.151 3.81443 31.386C3.76675 31.6209 3.86211 31.8088 4.10051 31.9028C7.96262 33.5943 8.10566 38.2458 8.10566 38.5277C7.7719 38.7156 7.48582 38.9036 7.19974 38.9506C6.86597 39.0445 6.43685 38.9506 6.05541 38.9036C5.5786 38.8566 5.05412 38.7626 4.57732 38.9506C3.90979 39.1855 3.38531 39.6553 2.95618 40.0782C2.71778 40.3131 2.47938 40.5011 2.28866 40.642C2.09794 40.736 1.9549 40.83 1.76417 40.9239C0.858247 41.4408 0 41.9106 0 42.8033C0 43.0852 0.190721 43.2732 0.476804 43.2732H29.085C29.3711 43.2732 29.5618 43.0852 29.5618 42.8033C29.5618 41.8636 28.7036 41.3938 27.7977 40.8769ZM25.7474 23.3515C26.4626 24.8081 26.2242 27.0633 26.0335 28.144C25.0322 27.6272 23.0296 26.4995 22.3144 25.043C21.5515 23.5395 22.4098 22.1769 22.7435 21.7071C23.3157 21.754 24.9845 21.895 25.7474 23.3515ZM7.2951 25.043C6.57989 26.4995 4.52963 27.6272 3.57603 28.144C3.38531 27.0633 3.1469 24.8081 3.86211 23.3515C4.625 21.848 6.29381 21.7071 6.86597 21.7071C7.15206 22.1769 8.05798 23.5865 7.2951 25.043ZM20.5502 38.0578C20.3595 37.9639 20.1688 37.9169 19.9304 37.8699C19.4059 37.8229 18.9291 37.9639 18.4523 38.1048C18.1662 38.1988 17.9278 38.2458 17.6894 38.2928C18.0709 34.1581 21.1224 32.7016 23.268 32.2317C21.0747 34.1111 20.6456 36.9302 20.5502 38.0578ZM18.8337 28.4729C19.7397 30.5872 19.1198 33.1714 19.1198 33.2184V33.2654C17.9278 34.346 16.9742 35.8965 16.7358 38.1518C16.5928 38.1048 16.4497 38.0578 16.3067 37.9639C15.8299 37.7759 15.3531 37.541 14.7809 37.541C14.2564 37.541 13.8273 37.729 13.3982 37.9169C13.6366 35.8965 14.9716 35.1918 15.0193 35.1448H15.067C17.2603 33.6882 18.3569 30.3053 18.8337 28.4729ZM10.4897 33.2184C10.4897 33.1714 9.82215 30.5872 10.7758 28.4729C11.2049 30.1174 12.1585 33.1244 14.018 34.7219C13.5889 35.0978 12.9691 35.8026 12.6353 36.8832C12.2539 35.2857 11.4433 34.1111 10.4897 33.2654C10.4897 33.2654 10.4897 33.2654 10.4897 33.2184ZM6.34149 32.1847C8.43943 32.7016 11.491 34.1581 11.9201 38.2928C11.6817 38.2458 11.4433 38.1988 11.1572 38.1048C10.6804 37.9639 10.2036 37.8229 9.67911 37.8699C9.44071 37.9169 9.24999 37.9639 9.05927 38.0109C8.96391 36.9302 8.48711 34.1111 6.34149 32.1847ZM1.28737 42.2865C1.52577 42.0986 1.90722 41.9106 2.24098 41.6757C2.4317 41.5817 2.57474 41.4878 2.76546 41.3938C3.05154 41.2058 3.33763 40.9709 3.57603 40.689C3.95747 40.3131 4.33891 39.9372 4.81572 39.7963C5.1018 39.7023 5.48324 39.7493 5.86469 39.7963C6.29381 39.8433 6.81829 39.9372 7.34278 39.7963C7.7719 39.7023 8.20102 39.4674 8.58247 39.2325C8.96391 38.9975 9.34535 38.7626 9.7268 38.7156C10.0606 38.6687 10.3943 38.8096 10.8234 38.9036C11.3002 39.0445 11.7771 39.1855 12.2539 39.1385C12.7307 39.0915 13.1598 38.9036 13.5889 38.7626C14.018 38.5747 14.3995 38.4337 14.7332 38.4337C15.067 38.4337 15.4484 38.5747 15.8776 38.7626C16.3067 38.9506 16.7358 39.1385 17.2126 39.1385C17.7371 39.1855 18.2139 39.0445 18.643 38.9036C19.0245 38.7626 19.4059 38.6687 19.7397 38.7156C20.1211 38.7626 20.5026 38.9975 20.884 39.2325C21.2654 39.4674 21.6946 39.7023 22.1237 39.7963C22.6482 39.8903 23.125 39.8433 23.6018 39.7963C23.9832 39.7493 24.4123 39.7023 24.6507 39.7963C25.1276 39.9372 25.509 40.3131 25.8904 40.689C26.1765 40.9709 26.4149 41.2058 26.701 41.3938C26.8917 41.4878 27.0348 41.5817 27.2255 41.6757C27.6069 41.8636 27.9407 42.0516 28.1791 42.2865H1.28737Z" fill="#1F3B90"/>
<path d="M31.4214 9.06811L26.701 0.234925C26.6533 0.140955 26.558 0.046985 26.4149 0C26.2719 0 26.1765 -4.55085e-08 26.0335 0.046985L14.018 6.29599C13.7796 6.43695 13.6843 6.71886 13.8273 6.9068L18.5477 15.74C18.5954 15.834 18.6907 15.9279 18.8338 15.9749C18.8814 15.9749 18.9291 15.9749 18.9768 15.9749C19.0722 15.9749 19.1198 15.9749 19.2152 15.9279L31.2307 9.67892C31.4214 9.58495 31.5167 9.30303 31.4214 9.06811ZM22.8389 13.0149L18.5954 5.0274L22.4098 3.05403L26.6533 11.0415L22.8389 13.0149ZM19.1675 14.8943L14.924 6.9068L17.7371 5.45026L21.9807 13.4377L19.1675 14.8943ZM27.5116 10.5716L23.268 2.58418L26.0812 1.12764L30.3247 9.1151L27.5116 10.5716Z" fill="#1F3B90"/>
<path d="M15.7345 18.7938C15.7345 19.0757 15.9252 19.2637 16.2113 19.2637C16.4974 19.2637 16.6881 19.0757 16.6881 18.7938V17.8541C16.6881 17.5722 16.4974 17.3843 16.2113 17.3843C15.9252 17.3843 15.7345 17.5722 15.7345 17.8541V18.7938Z" fill="#1F3B90"/>
<path d="M10.4897 25.8417V24.902C10.4897 24.6201 10.299 24.4321 10.0129 24.4321C9.72679 24.4321 9.53607 24.6201 9.53607 24.902V25.8417C9.53607 26.1236 9.72679 26.3115 10.0129 26.3115C10.299 26.3115 10.4897 26.1236 10.4897 25.8417Z" fill="#1F3B90"/>
<path d="M19.0722 24.4323V25.372C19.0722 25.6539 19.2629 25.8418 19.549 25.8418C19.835 25.8418 20.0258 25.6539 20.0258 25.372V24.4323C20.0258 24.1503 19.835 23.9624 19.549 23.9624C19.2629 23.9624 19.0722 24.1503 19.0722 24.4323Z" fill="#1F3B90"/>
<path d="M12.8737 20.6733C13.1598 20.6733 13.3505 20.4854 13.3505 20.2035V19.2638C13.3505 18.9819 13.1598 18.7939 12.8737 18.7939C12.5876 18.7939 12.3969 18.9819 12.3969 19.2638V20.2035C12.3969 20.4854 12.5876 20.6733 12.8737 20.6733Z" fill="#1F3B90"/>
<path d="M10.9665 16.4448C11.2526 16.4448 11.4433 16.2569 11.4433 15.975V15.0353C11.4433 14.7534 11.2526 14.5654 10.9665 14.5654C10.6804 14.5654 10.4897 14.7534 10.4897 15.0353V15.975C10.4897 16.2569 10.6804 16.4448 10.9665 16.4448Z" fill="#1F3B90"/>
<path d="M15.2577 12.686C14.9717 12.686 14.7809 12.874 14.7809 13.1559V14.0956C14.7809 14.3775 14.9717 14.5654 15.2577 14.5654C15.5438 14.5654 15.7345 14.3775 15.7345 14.0956V13.1559C15.7345 12.874 15.5438 12.686 15.2577 12.686Z" fill="#1F3B90"/>
</svg>
