<svg width="41" height="40" viewBox="0 0 41 40" fill="none" xmlns="http://www.w3.org/2000/svg">
<path d="M34.9217 18.0716C34.7074 17.9288 34.3503 18.0002 34.136 18.1431L28.636 22.5002V18.3574C28.636 18.0716 28.4931 17.8574 28.2788 17.7145C28.0645 17.5716 27.7788 17.6431 27.5645 17.7859L20.8503 22.6431L20.4931 18.1431C20.4931 17.9288 20.3503 17.6431 20.136 17.5716C19.9217 17.4288 19.636 17.5002 19.4217 17.5716L11.3503 22.4288V15.8574C11.8503 15.5716 12.2788 15.2145 12.5645 14.7145C12.9217 14.8574 13.3503 14.8574 13.7788 14.8574C15.3503 14.8574 16.7074 14.0002 17.4217 12.7145C17.636 12.7145 17.8503 12.7859 18.136 12.7859C21.0645 12.7859 23.4217 10.4288 23.4217 7.50021C23.4217 4.57164 21.0645 2.14307 18.136 2.14307C15.4931 2.14307 13.3503 4.00021 12.9217 6.57164C11.0645 6.92878 9.7074 8.50021 9.56454 10.4288C8.2074 10.6431 7.13597 11.8574 7.13597 13.2859C7.13597 13.3574 7.13597 13.4288 7.13597 13.4288H6.42168C5.99311 13.4288 5.7074 13.7145 5.7074 14.1431V37.1431C5.7074 37.5716 5.99311 37.8574 6.42168 37.8574H34.636C35.0645 37.8574 35.3503 37.5716 35.3503 37.1431V18.7145C35.2788 18.4288 35.136 18.2145 34.9217 18.0716ZM8.56454 13.2859C8.56454 12.4288 9.2074 11.7859 10.0645 11.7859C10.136 11.7859 10.2074 11.7859 10.2788 11.7859C10.4931 11.7859 10.7074 11.7145 10.8503 11.5716C10.9931 11.4288 11.0645 11.2145 11.0645 11.0002C11.0645 10.8574 11.0645 10.7859 11.0645 10.6431C11.0645 9.21449 12.2074 7.92878 13.636 7.85735C13.9931 7.85735 14.2788 7.57164 14.2788 7.2145C14.3503 5.14307 16.0645 3.57164 18.136 3.57164C20.2788 3.57164 21.9931 5.28592 21.9931 7.50021C21.9931 9.64307 20.2788 11.3574 18.136 11.3574C17.8503 11.3574 17.4931 11.2859 17.2074 11.2145C16.8503 11.1431 16.4931 11.2859 16.3503 11.6431C15.9217 12.7145 14.9217 13.4288 13.7788 13.4288C13.3503 13.4288 12.9217 13.3574 12.4931 13.1431C12.2788 13.0716 12.0645 13.0716 11.8503 13.1431C11.636 13.2145 11.4931 13.4288 11.4217 13.6431C11.4217 13.7859 11.3503 13.9288 11.2788 14.0716C11.2074 13.7145 10.9217 13.5002 10.5645 13.5002H8.49311C8.56454 13.4288 8.56454 13.3574 8.56454 13.2859ZM7.99311 14.8574H9.92168V16.0002H7.13597V14.8574H7.99311ZM33.8503 36.4288H7.13597V17.5002H9.92168V23.7145C9.92168 24.0002 10.0645 24.2145 10.2788 24.3574C10.4931 24.5002 10.7788 24.5002 10.9931 24.3574L19.136 19.5002L19.4931 24.0716C19.4931 24.3574 19.636 24.5716 19.9217 24.6431C20.136 24.7859 20.4217 24.7145 20.636 24.5716L27.2788 19.7859V24.0002C27.2788 24.2859 27.4217 24.5002 27.7074 24.6431C27.9217 24.7859 28.2788 24.7145 28.4931 24.5716L33.9931 20.2145V36.4288H33.8503Z" fill="#1F3B90"/>
<path d="M29.2788 34.2861H32.3502C32.7788 34.2861 33.0645 34.0004 33.0645 33.5718V30.5004C33.0645 30.0718 32.7788 29.7861 32.3502 29.7861H29.2788C28.8502 29.7861 28.5645 30.0718 28.5645 30.5004V33.5718C28.5645 34.0004 28.8502 34.2861 29.2788 34.2861ZM29.9931 31.2147H31.6359V32.8576H29.9931V31.2147Z" fill="#1F3B90"/>
<path d="M20.2788 29.7861H17.2074C16.7788 29.7861 16.4931 30.0718 16.4931 30.5004V33.5718C16.4931 34.0004 16.7788 34.2861 17.2074 34.2861H20.2788C20.7074 34.2861 20.9931 34.0004 20.9931 33.5718V30.5004C20.9931 30.1433 20.636 29.7861 20.2788 29.7861ZM19.5645 32.8576H17.9217V31.2147H19.5645V32.8576Z" fill="#1F3B90"/>
<path d="M14.2788 25.9287H11.2074C10.7788 25.9287 10.4931 26.2144 10.4931 26.643V29.7144C10.4931 30.143 10.7788 30.4287 11.2074 30.4287H14.2788C14.7074 30.4287 14.9931 30.143 14.9931 29.7144V26.643C14.9931 26.2859 14.636 25.9287 14.2788 25.9287ZM13.5645 29.0716H11.9217V27.4287H13.5645V29.0716Z" fill="#1F3B90"/>
<path d="M26.2788 25.9287H23.2074C22.7788 25.9287 22.4931 26.2144 22.4931 26.643V29.7144C22.4931 30.143 22.7788 30.4287 23.2074 30.4287H26.2788C26.7074 30.4287 26.9931 30.143 26.9931 29.7144V26.643C26.9931 26.2859 26.7074 25.9287 26.2788 25.9287ZM25.5645 29.0716H23.9217V27.4287H25.5645V29.0716Z" fill="#1F3B90"/>
</svg>
