<svg width="43" height="23" viewBox="0 0 43 23" fill="none" xmlns="http://www.w3.org/2000/svg">
<path d="M14.573 0.110352L14.5819 0.820434H11.9944L12.0051 1.99494V2.0039L0.0035518 2.00749V2.38584L0 3.88849L0.035518 3.96201C0.412008 4.79941 1.21294 5.57763 2.26782 6.3164C3.32271 7.05338 4.63865 7.74374 6.07712 8.34264C8.95408 9.53329 12.2963 10.351 14.9673 10.3151C16.2921 10.2972 17.2138 10.7239 17.8442 11.5201C18.4498 12.284 18.7499 13.4782 18.7748 14.9629L14.1006 18.7106L14.1148 22.1104H36.033L36.0259 18.9544L31.3553 14.9737C31.4529 11.3641 32.6126 8.79989 34.511 7.0749C36.4414 5.31941 39.1461 4.40312 42.2717 4.17719L42.618 4.15029L42.6216 0.12111L14.573 0.110352ZM15.3278 0.867055L41.8704 0.877814L41.8633 3.49041C38.7785 3.76835 36.0205 4.68464 34.0067 6.51185C32.3871 7.98581 31.4618 10.2093 31.0036 12.8488L28.132 12.856L28.1356 13.6127L30.8616 13.6055C30.8136 14.0108 30.6609 14.3228 30.6431 14.7531L29.0572 14.7477L29.0537 15.5044L30.8207 15.5116L34.6176 18.7428L29.3947 18.7464C28.1089 17.5361 26.6385 16.7453 25.1041 16.67C23.6532 16.5982 22.1952 17.251 20.865 18.5348L15.5764 18.4918L19.5686 15.2982V15.1153C19.5722 13.4244 19.2134 12.0311 18.432 11.0467C17.7288 10.1573 16.6437 9.70364 15.3402 9.63012L15.326 1.57893H15.3402L15.3278 0.867055ZM12.7527 1.57714H14.5748L14.589 9.47411C12.1258 9.43825 9.03932 8.74969 6.36482 7.63973C4.96719 7.05876 3.68854 6.38812 2.69581 5.69239C1.71907 5.01279 1.04245 4.30091 0.752981 3.68587V2.76419L12.0051 2.76061V6.63378H12.7545V2.76061H12.7616L12.7545 1.98059V1.57534L12.7527 1.57714ZM25.0686 17.4267C26.4005 17.493 27.7378 18.2085 28.94 19.3597L28.9365 21.3536H21.2202L21.2096 19.2019C22.4633 17.9162 23.7722 17.3621 25.0686 17.4267ZM14.8465 19.2449L20.4584 19.2862L20.469 21.3536H14.8572L14.8465 19.2449ZM35.2693 19.4995L35.2729 21.3536H29.6824V19.5013L35.2693 19.4995Z" fill="#1F3B90"/>
</svg>
