<svg width="50" height="50" viewBox="0 0 50 50" fill="none" xmlns="http://www.w3.org/2000/svg">
<path d="M17.1875 40.625V39.0625C17.1897 37.7746 16.9079 36.5021 16.3623 35.3355C15.8166 34.169 15.0204 33.1371 14.0305 32.3133L12.9445 30.0539C12.8034 29.7493 12.5871 29.4856 12.3161 29.2876C12.0451 29.0895 11.7281 28.9636 11.3951 28.9216C11.062 28.8797 10.7238 28.9231 10.4121 29.0478C10.1004 29.1725 9.82554 29.3743 9.61329 29.6344C9.41721 29.8717 9.27626 30.1497 9.2006 30.4481C9.12495 30.7465 9.11647 31.058 9.17579 31.3602L9.6336 33.7406C9.64609 33.8069 9.6671 33.8712 9.6961 33.932L9.725 33.9922C7.96857 32.1331 6.81737 29.7849 6.42344 27.2578L6.12813 25.4141C6.04877 24.8679 5.77637 24.3682 5.36031 24.0056C4.94424 23.643 4.41204 23.4415 3.86016 23.4375C3.53881 23.4386 3.22135 23.5078 2.92871 23.6406C2.63608 23.7734 2.37493 23.9667 2.1625 24.2078C1.93862 24.4616 1.77095 24.7598 1.67051 25.083C1.57006 25.4061 1.53911 25.7469 1.57969 26.0828L2.01016 29.6617C2.503 33.8653 4.33869 37.7978 7.24453 40.875C7.10791 41.0182 7.03154 41.2084 7.03125 41.4062V47.6562C7.03125 47.8635 7.11356 48.0622 7.26008 48.2087C7.40659 48.3552 7.6053 48.4375 7.8125 48.4375H17.1875C17.3947 48.4375 17.5934 48.3552 17.7399 48.2087C17.8864 48.0622 17.9688 47.8635 17.9688 47.6562V41.4062C17.9688 41.199 17.8864 41.0003 17.7399 40.8538C17.5934 40.7073 17.3947 40.625 17.1875 40.625ZM3.56094 29.4781L3.13125 25.8992C3.1164 25.7822 3.12655 25.6633 3.16102 25.5504C3.1955 25.4376 3.25352 25.3333 3.33125 25.2445C3.39681 25.1683 3.47794 25.1071 3.56918 25.0649C3.66042 25.0227 3.75964 25.0006 3.86016 25C4.04016 25.0054 4.21226 25.0751 4.34527 25.1965C4.47828 25.3179 4.56338 25.483 4.58516 25.6617L4.88047 27.5047C5.19049 29.5376 5.94455 31.4772 7.08904 33.1857C8.23352 34.8942 9.74033 36.3296 11.5023 37.3898C11.6465 37.4757 11.8145 37.5128 11.9814 37.4957C12.1483 37.4786 12.3053 37.4083 12.4291 37.2951C12.5529 37.1819 12.637 37.0318 12.6689 36.8671C12.7008 36.7023 12.6789 36.5317 12.6063 36.3805L11.1484 33.3469L10.7102 31.0648C10.6946 30.9887 10.6962 30.9101 10.7149 30.8347C10.7335 30.7593 10.7687 30.689 10.818 30.6289C10.8574 30.5803 10.9072 30.541 10.9636 30.514C11.0201 30.4869 11.0819 30.4728 11.1445 30.4727C11.2277 30.4751 11.3084 30.501 11.3775 30.5473C11.4466 30.5936 11.5013 30.6584 11.5352 30.7344L12.6977 33.1562C12.7498 33.2647 12.8263 33.3596 12.9211 33.4336C13.7667 34.1075 14.4492 34.9638 14.9174 35.9385C15.3856 36.9132 15.6275 37.9812 15.625 39.0625V40.625H9.2C6.05438 37.6983 4.05504 33.7462 3.56094 29.4781ZM16.4063 46.875H8.59375V42.1875H16.4063V46.875Z" fill="#1F3B90"/>
<path d="M46.1398 23.4375C45.5884 23.442 45.0567 23.6438 44.6412 24.0064C44.2256 24.3689 43.9535 24.8683 43.8742 25.4141L43.5789 27.2578C43.185 29.7849 42.0338 32.1331 40.2773 33.9922L40.3062 33.932C40.3353 33.8712 40.3563 33.8069 40.3688 33.7406L40.8266 31.3609C40.8859 31.0587 40.8774 30.7471 40.8018 30.4485C40.7261 30.1499 40.5852 29.8719 40.3891 29.6344C40.1768 29.3743 39.9018 29.1725 39.5901 29.0479C39.2784 28.9233 38.9401 28.88 38.607 28.922C38.274 28.964 37.9571 29.09 37.6861 29.2881C37.4151 29.4863 37.1989 29.7501 37.0578 30.0547L35.9719 32.3133C34.9815 33.1368 34.1849 34.1686 33.6388 35.3352C33.0927 36.5018 32.8106 37.7744 32.8125 39.0625V40.625C32.6053 40.625 32.4066 40.7073 32.2601 40.8538C32.1136 41.0003 32.0312 41.199 32.0312 41.4062V47.6562C32.0312 47.8635 32.1136 48.0622 32.2601 48.2087C32.4066 48.3552 32.6053 48.4375 32.8125 48.4375H42.1875C42.3947 48.4375 42.5934 48.3552 42.7399 48.2087C42.8864 48.0622 42.9688 47.8635 42.9688 47.6562V41.4062C42.9679 41.2095 42.8919 41.0206 42.7563 40.8781C45.6621 37.8009 47.4978 33.8684 47.9906 29.6648L48.4211 26.0859C48.4617 25.75 48.4307 25.4092 48.3303 25.0861C48.2298 24.7629 48.0622 24.4647 47.8383 24.2109C47.6261 23.9691 47.3649 23.7752 47.0721 23.6418C46.7793 23.5085 46.4616 23.4389 46.1398 23.4375ZM41.4062 46.875H33.5938V42.1875H41.4062V46.875ZM46.4391 29.4781C45.945 33.7462 43.9456 37.6983 40.8 40.625H34.375V39.0625C34.3715 37.9804 34.6128 36.9115 35.0807 35.9357C35.5487 34.96 36.2313 34.1028 37.0773 33.4281C37.1722 33.3541 37.2486 33.2592 37.3008 33.1508L38.4633 30.7289C38.497 30.6528 38.5516 30.5877 38.6207 30.5413C38.6898 30.4948 38.7707 30.4689 38.8539 30.4664C38.9165 30.4666 38.9783 30.4807 39.0348 30.5077C39.0913 30.5347 39.141 30.574 39.1805 30.6227C39.2297 30.6829 39.2649 30.7533 39.2836 30.8289C39.3022 30.9044 39.3038 30.9831 39.2883 31.0594L38.85 33.3406L37.3922 36.3742C37.3196 36.5255 37.2976 36.6961 37.3295 36.8608C37.3614 37.0255 37.4455 37.1756 37.5693 37.2888C37.6932 37.402 37.8501 37.4724 38.017 37.4895C38.1839 37.5065 38.3519 37.4694 38.4961 37.3836C40.2581 36.3234 41.7649 34.888 42.9094 33.1795C44.0539 31.471 44.8079 29.5313 45.118 27.4984L45.4133 25.6555C45.4365 25.4776 45.5224 25.3138 45.6556 25.1937C45.7888 25.0735 45.9605 25.0048 46.1398 25C46.2404 25.0006 46.3396 25.0227 46.4308 25.0649C46.5221 25.1071 46.6032 25.1683 46.6687 25.2445C46.7465 25.3333 46.8045 25.4376 46.839 25.5504C46.8735 25.6633 46.8836 25.7822 46.8688 25.8992L46.4391 29.4781Z" fill="#1F3B90"/>
<path d="M32.8125 21.0937V18.1937C34.0451 16.7098 34.8296 14.9056 35.0742 12.9922C35.3189 11.0788 35.0136 9.13525 34.194 7.38902C33.3744 5.64278 32.0745 4.16606 30.4463 3.13163C28.8181 2.0972 26.929 1.54785 25 1.54785C23.071 1.54785 21.1819 2.0972 19.5537 3.13163C17.9255 4.16606 16.6256 5.64278 15.806 7.38902C14.9864 9.13525 14.6811 11.0788 14.9258 12.9922C15.1704 14.9056 15.9549 16.7098 17.1875 18.1937V21.0937C17.1874 21.2148 17.2155 21.3344 17.2695 21.4429L18.832 24.5679C18.8969 24.6977 18.9967 24.807 19.1202 24.8833C19.2437 24.9596 19.3861 25 19.5313 24.9999V28.9062C19.5313 29.5278 19.7782 30.1239 20.2177 30.5634C20.6573 31.003 21.2534 31.2499 21.875 31.2499H28.125C28.7466 31.2499 29.3427 31.003 29.7823 30.5634C30.2218 30.1239 30.4688 29.5278 30.4688 28.9062V24.9999C30.6146 25.0007 30.7578 24.9607 30.882 24.8843C31.0063 24.8079 31.1067 24.6983 31.1719 24.5679L32.7344 21.4429C32.7871 21.3341 32.8138 21.2145 32.8125 21.0937ZM28.9063 28.9062C28.9063 29.1134 28.8239 29.3121 28.6774 29.4586C28.5309 29.6051 28.3322 29.6874 28.125 29.6874H21.875C21.6678 29.6874 21.4691 29.6051 21.3226 29.4586C21.1761 29.3121 21.0938 29.1134 21.0938 28.9062V24.9999H28.9063V28.9062ZM24.2188 16.4062C24.2188 16.2516 24.2646 16.1006 24.3504 15.9721C24.4363 15.8436 24.5583 15.7435 24.701 15.6844C24.8438 15.6252 25.0009 15.6098 25.1524 15.6399C25.304 15.6701 25.4432 15.7445 25.5524 15.8537C25.6617 15.963 25.7361 16.1022 25.7662 16.2537C25.7964 16.4053 25.7809 16.5624 25.7218 16.7051C25.6627 16.8479 25.5625 16.9699 25.434 17.0557C25.3056 17.1416 25.1545 17.1874 25 17.1874C24.7928 17.1874 24.5941 17.1051 24.4476 16.9586C24.3011 16.8121 24.2188 16.6134 24.2188 16.4062ZM31.25 17.9054V20.9093L29.9859 23.4374H28.9063V19.9272L30.1492 19.0155C30.2483 18.9429 30.3288 18.848 30.3844 18.7385C30.4399 18.629 30.4688 18.5079 30.4688 18.3851V12.3562C30.99 12.1719 31.4293 11.8092 31.7091 11.3323C31.9888 10.8555 32.091 10.295 31.9975 9.75011C31.904 9.20519 31.6209 8.71087 31.1982 8.35451C30.7755 7.99815 30.2404 7.80269 29.6875 7.80269C29.1346 7.80269 28.5995 7.99815 28.1768 8.35451C27.7541 8.71087 27.471 9.20519 27.3775 9.75011C27.284 10.295 27.3862 10.8555 27.6659 11.3323C27.9457 11.8092 28.385 12.1719 28.9063 12.3562V17.989L27.6633 18.9007C27.5642 18.9733 27.4837 19.0682 27.4281 19.1777C27.3726 19.2873 27.3437 19.4083 27.3438 19.5312V23.4374H25.7813V18.6062C26.3025 18.4219 26.7418 18.0592 27.0216 17.5823C27.3013 17.1055 27.4035 16.545 27.31 16.0001C27.2165 15.4552 26.9334 14.9609 26.5107 14.6045C26.088 14.2481 25.5529 14.0527 25 14.0527C24.4471 14.0527 23.912 14.2481 23.4893 14.6045C23.0666 14.9609 22.7835 15.4552 22.69 16.0001C22.5965 16.545 22.6987 17.1055 22.9784 17.5823C23.2582 18.0592 23.6975 18.4219 24.2188 18.6062V23.4374H22.6563V19.5312C22.6563 19.4083 22.6274 19.2873 22.5719 19.1777C22.5164 19.0682 22.4358 18.9733 22.3367 18.9007L21.0938 17.989V12.3562C21.615 12.1719 22.0543 11.8092 22.3341 11.3323C22.6138 10.8555 22.716 10.295 22.6225 9.75011C22.529 9.20519 22.2459 8.71087 21.8232 8.35451C21.4005 7.99815 20.8654 7.80269 20.3125 7.80269C19.7596 7.80269 19.2245 7.99815 18.8018 8.35451C18.3791 8.71087 18.096 9.20519 18.0025 9.75011C17.909 10.295 18.0112 10.8555 18.2909 11.3323C18.5707 11.8092 19.01 12.1719 19.5313 12.3562V18.3851C19.5312 18.5079 19.5601 18.629 19.6156 18.7385C19.6712 18.848 19.7517 18.9429 19.8508 19.0155L21.0938 19.9272V23.4374H20.0141L18.75 20.9093V17.9054C18.7499 17.7152 18.6805 17.5316 18.5547 17.389C17.4608 16.1486 16.748 14.6189 16.5019 12.9835C16.2558 11.348 16.4869 9.67632 17.1673 8.16894C17.8478 6.66156 18.9487 5.38255 20.3381 4.48537C21.7274 3.5882 23.3462 3.11098 25 3.11098C26.6539 3.11098 28.2726 3.5882 29.6619 4.48537C31.0513 5.38255 32.1522 6.66156 32.8327 8.16894C33.5131 9.67632 33.7442 11.348 33.4981 12.9835C33.252 14.6189 32.5392 16.1486 31.4453 17.389C31.3195 17.5316 31.2501 17.7152 31.25 17.9054ZM28.9063 10.1562C28.9063 10.0016 28.9521 9.85059 29.0379 9.72211C29.1238 9.59364 29.2458 9.4935 29.3885 9.43437C29.5313 9.37524 29.6884 9.35977 29.8399 9.38991C29.9915 9.42006 30.1307 9.49446 30.2399 9.60372C30.3492 9.71298 30.4236 9.85219 30.4537 10.0037C30.4839 10.1553 30.4684 10.3124 30.4093 10.4551C30.3502 10.5979 30.25 10.7199 30.1215 10.8057C29.9931 10.8916 29.842 10.9374 29.6875 10.9374C29.4803 10.9374 29.2816 10.8551 29.1351 10.7086C28.9886 10.5621 28.9063 10.3634 28.9063 10.1562ZM20.3125 10.9374C20.158 10.9374 20.0069 10.8916 19.8785 10.8057C19.75 10.7199 19.6499 10.5979 19.5907 10.4551C19.5316 10.3124 19.5161 10.1553 19.5463 10.0037C19.5764 9.85219 19.6508 9.71298 19.7601 9.60372C19.8693 9.49446 20.0085 9.42006 20.1601 9.38991C20.3116 9.35977 20.4687 9.37524 20.6115 9.43437C20.7542 9.4935 20.8762 9.59364 20.9621 9.72211C21.0479 9.85059 21.0938 10.0016 21.0938 10.1562C21.0938 10.3634 21.0114 10.5621 20.8649 10.7086C20.7184 10.8551 20.5197 10.9374 20.3125 10.9374Z" fill="#1F3B90"/>
</svg>
