<svg width="49" height="49" viewBox="0 0 49 49" fill="none" xmlns="http://www.w3.org/2000/svg">
<path d="M24.5 26.95C25.8531 26.95 26.95 25.8531 26.95 24.5C26.95 23.147 25.8531 22.05 24.5 22.05C23.147 22.05 22.05 23.147 22.05 24.5C22.05 25.8531 23.147 26.95 24.5 26.95Z" fill="#1F3B90"/>
<path d="M24.4999 9.80332C32.603 9.80332 39.196 16.3963 39.196 24.4999C39.196 32.6035 32.603 39.1965 24.4999 39.1965C16.3963 39.1965 9.80381 32.6035 9.80381 24.4999C9.80381 16.3963 16.3963 9.80332 24.4999 9.80332ZM24.4999 4.90332C13.6773 4.90332 4.90381 13.6778 4.90381 24.4999C4.90381 35.322 13.6773 44.0965 24.4999 44.0965C35.323 44.0965 44.096 35.322 44.096 24.4999C44.096 13.6778 35.323 4.90332 24.4999 4.90332Z" fill="#1F3B90"/>
<path d="M24.5001 18.5863C27.7605 18.5863 30.4134 21.2391 30.4134 24.5001C30.4134 27.761 27.7605 30.4139 24.5001 30.4139C21.2396 30.4139 18.5868 27.761 18.5868 24.5001C18.5868 21.2391 21.2396 18.5863 24.5001 18.5863ZM24.5001 13.6863C18.528 13.6863 13.6868 18.5285 13.6868 24.5001C13.6868 30.4717 18.528 35.3139 24.5001 35.3139C30.4722 35.3139 35.3134 30.4717 35.3134 24.5001C35.3134 18.5285 30.4722 13.6863 24.5001 13.6863Z" fill="#1F3B90"/>
</svg>
