<svg width="46" height="27" viewBox="0 0 46 27" fill="none" xmlns="http://www.w3.org/2000/svg">
<path d="M34.6344 19.5381C33.2918 19.5381 32.1995 20.6303 32.1995 21.973C32.1995 23.3155 33.2918 24.4078 34.6344 24.4078C35.977 24.4078 37.0692 23.3155 37.0692 21.973C37.0692 20.6302 35.977 19.5381 34.6344 19.5381ZM34.6344 23.2601C33.9246 23.2601 33.3472 22.6827 33.3472 21.973C33.3472 21.2632 33.9246 20.6857 34.6344 20.6857C35.3442 20.6857 35.9216 21.2632 35.9216 21.973C35.9216 22.6826 35.3442 23.2601 34.6344 23.2601Z" fill="#1F3B90"/>
<path d="M20.6076 19.5381C19.265 19.5381 18.1728 20.6303 18.1728 21.973C18.1728 23.3155 19.265 24.4078 20.6076 24.4078C21.9502 24.4078 23.0425 23.3155 23.0425 21.973C23.0425 20.6302 21.9502 19.5381 20.6076 19.5381ZM20.6076 23.2601C19.8979 23.2601 19.3204 22.6827 19.3204 21.973C19.3204 21.2632 19.8979 20.6857 20.6076 20.6857C21.3174 20.6857 21.8948 21.2632 21.8948 21.973C21.8948 22.6826 21.3174 23.2601 20.6076 23.2601Z" fill="#1F3B90"/>
<path d="M43.9135 9.4322V7.14668H39.7873L38.5638 0.110352H20.6076H20.1272H18.0815V1.25799H19.9222L18.1139 11.383L12.3769 15.7215V18.0748L11.2717 18.737V15.8412H8.8101L1.64074 20.4372V18.9697H0.493103V21.173V21.4867V23.8987H11.2717V22.7989L12.3769 22.1367V23.5929H16.256C16.915 25.3571 18.6169 26.617 20.6081 26.617C22.5992 26.617 24.3011 25.3571 24.9602 23.593H30.2821C30.9515 25.3939 32.6816 26.6171 34.6348 26.6171C36.5884 26.6171 38.3193 25.3938 38.9884 23.593H41.6504L42.6043 20.3254L43.6197 19.5435H45.5837V17.0864V15.9388V9.4322H43.9135ZM18.6338 15.178L19.8011 14.2739L22.8924 13.6737L22.6361 15.178H18.6338ZM24.0965 13.4398L26.3622 12.9999L25.9916 15.1779H23.8004L24.0965 13.4398ZM27.5662 12.7662L29.8089 12.3307L29.3237 15.1779H27.1558L27.5662 12.7662ZM31.013 12.097L33.13 11.6859C33.1477 11.775 33.1683 11.8716 33.1927 11.9744L32.6476 15.178H30.4879L31.013 12.097ZM34.007 14.0302C34.2439 14.4292 34.5375 14.8226 34.9013 15.178H33.8117L34.007 14.0302ZM36.4413 14.9146C34.9589 14.0422 34.434 12.3201 34.26 11.4665L38.0047 10.7394L36.4413 14.9146ZM21.088 1.25789H37.5986L38.6566 7.34255L34.0316 8.21552C34.3027 5.92426 35.794 4.12659 35.8101 4.10746L35.946 3.94699V1.72861H21.6609L20.1088 10.8435L19.3503 10.9867L21.088 1.25789ZM21.3117 10.6164L22.6295 2.87615H24.7303L23.4824 10.2066L21.3117 10.6164ZM25.8944 2.87624H28.0868L26.9501 9.55222L24.6851 9.97971L25.8944 2.87624ZM29.251 2.87624H31.4187L30.3921 8.90256L28.1529 9.32518L29.251 2.87624ZM32.5829 2.87624H34.7984V3.53633C34.3597 4.10852 33.0214 6.0353 32.8583 8.43701L31.595 8.67543L32.5829 2.87624ZM10.124 22.7511H1.64074V21.8004L9.14626 16.9887H10.124V22.7511ZM11.2717 21.4609V20.075L12.3769 19.4128V20.7987L11.2717 21.4609ZM13.5246 16.2925L18.8783 12.2436L38.8532 8.47335L38.4767 9.47877L19.4483 13.1733L19.3143 13.1992L14.5595 16.8823V22.4453H13.5245L13.5246 16.2925ZM15.7072 22.4453V17.4451L17.1522 16.3256H36.4079C36.5651 16.816 36.9041 17.2372 37.3694 17.492C38.7223 18.233 39.5786 19.6279 39.638 21.1608L39.25 21.4597C38.9935 19.1396 37.0221 17.3288 34.6347 17.3288C32.4946 17.3288 30.689 18.7843 30.1532 20.7571H25.0898C24.5539 18.7842 22.7483 17.3286 20.6081 17.3286C18.0473 17.3286 15.9639 19.4119 15.9639 21.9729C15.9639 22.1324 15.972 22.2899 15.9878 22.4453H15.7072ZM20.608 25.4693C18.68 25.4693 17.1114 23.9008 17.1114 21.9728C17.1114 20.0447 18.6799 18.4761 20.608 18.4761C22.536 18.4761 24.1046 20.0447 24.1046 21.9728C24.1045 23.9008 22.536 25.4693 20.608 25.4693ZM25.2505 21.9048H29.9924C29.992 21.9275 29.9905 21.9502 29.9905 21.9731C29.9905 22.1314 30.0009 22.2889 30.0167 22.4454H25.2282C25.244 22.29 25.2521 22.1324 25.2521 21.9729C25.2521 21.95 25.2508 21.9275 25.2505 21.9048ZM38.1007 22.4378L38.082 22.557C38.0661 22.6586 38.0441 22.7614 38.0147 22.8719C37.6088 24.4014 36.2189 25.4695 34.6347 25.4695C33.0505 25.4695 31.6607 24.4014 31.2547 22.8714C31.1774 22.5812 31.1382 22.2789 31.1382 21.973C31.1382 20.0449 32.7067 18.4763 34.6347 18.4763C36.5627 18.4763 38.1314 20.0448 38.1314 21.973C38.1313 22.1279 38.121 22.2837 38.1007 22.4378ZM40.7898 22.4454H39.8509L41.062 21.5129L40.7898 22.4454ZM42.7659 18.7524L40.7016 20.3419C40.4067 18.7199 39.3972 17.2943 37.9207 16.4855C37.6348 16.3289 37.4571 16.0292 37.4571 15.7031V15.6354C37.4571 15.5283 37.4762 15.4229 37.5138 15.3226L40.1459 8.29432H42.7659V18.7524ZM44.436 18.3959H43.9139V17.0864H44.436V18.3959ZM43.9139 15.9388V10.5798H44.436V15.9388H43.9139Z" fill="#1F3B90"/>
<path d="M39.88 15.0928H38.7935V16.1792H39.88V15.0928Z" fill="#1F3B90"/>
<path d="M41.8817 8.97949H40.7953V10.0658H41.8817V8.97949Z" fill="#1F3B90"/>
</svg>
