<svg width="37" height="32" viewBox="0 0 37 32" fill="none" xmlns="http://www.w3.org/2000/svg">
<path d="M5.64983 24.3837C5.73051 24.4633 5.83984 24.5078 5.95399 24.5078H10.2382C10.3518 24.5078 10.4608 24.4636 10.5414 24.3847L10.548 24.3782C10.6292 24.2987 10.675 24.1905 10.675 24.0776V16.5776C10.675 16.3436 10.4824 16.1538 10.2449 16.1538H5.94737C5.70987 16.1538 5.51727 16.3436 5.51727 16.5776V24.0776C5.51727 24.19 5.56261 24.2978 5.6432 24.3773L5.64983 24.3837ZM6.37746 17.0015H9.81468V23.6603H6.37746V17.0015Z" fill="#1F3B90"/>
<path d="M15.7046 24.3837C15.7853 24.4633 15.8947 24.5078 16.0088 24.5078H20.2931C20.4071 24.5078 20.5165 24.4632 20.5972 24.3837L20.6038 24.3773C20.6844 24.2978 20.7297 24.1901 20.7297 24.0776V16.5776C20.7297 16.3436 20.5371 16.1538 20.2996 16.1538H16.0023C15.7648 16.1538 15.5722 16.3436 15.5722 16.5776V24.0776C15.5722 24.19 15.6175 24.2978 15.6981 24.3773L15.7046 24.3837ZM16.4323 17.0015H19.8694V23.6603H16.4323V17.0015Z" fill="#1F3B90"/>
<path d="M25.7604 24.3847C25.841 24.4636 25.95 24.5078 26.0636 24.5078H30.3478C30.4619 24.5078 30.5713 24.4632 30.652 24.3837L30.6585 24.3773C30.7392 24.2978 30.7844 24.1901 30.7844 24.0776V16.5776C30.7844 16.3436 30.5918 16.1538 30.3543 16.1538H26.057C25.8195 16.1538 25.6269 16.3436 25.6269 16.5776V24.0776C25.6269 24.1905 25.6726 24.2986 25.7539 24.3782L25.7604 24.3847ZM26.4871 17.0014H29.9242V23.6602H26.4871V17.0014Z" fill="#1F3B90"/>
<path d="M33.2629 25.4459H31.9969C32.3135 25.0759 32.5049 24.5985 32.5049 24.0777V16.5778C32.5049 15.5336 32.099 14.5455 31.3619 13.7955C30.7357 13.1582 30.4612 12.7983 30.4612 12.0268V11.397C30.4612 11.163 30.2686 10.9732 30.0311 10.9732H26.3806C26.1431 10.9732 25.9505 11.163 25.9505 11.397V12.0268C25.9505 12.7983 25.676 13.1582 25.0497 13.7955C24.3126 14.5456 23.9067 15.5336 23.9067 16.5778V24.0777C23.9067 24.5985 24.0981 25.0758 24.4147 25.4459H21.9422C22.2588 25.0759 22.4502 24.5985 22.4502 24.0777V16.5778C22.4502 15.5337 22.0443 14.5456 21.3072 13.7955C20.6809 13.1582 20.4064 12.7983 20.4064 12.0268V11.397C20.4064 11.163 20.2138 10.9732 19.9763 10.9732H16.3258C16.0883 10.9732 15.8957 11.163 15.8957 11.397V12.0268C15.8957 12.7983 15.6212 13.1582 14.9949 13.7955C14.2578 14.5456 13.8519 15.5336 13.8519 16.5778V24.0777C13.8519 24.5985 14.0433 25.0758 14.3599 25.4459H11.8874C12.204 25.0759 12.3954 24.5985 12.3954 24.0777V16.5778C12.3954 15.5336 11.9895 14.5455 11.2524 13.7955C10.6261 13.1582 10.3516 12.7983 10.3516 12.0268V11.7792C10.5554 11.7459 10.7114 11.5727 10.7114 11.3623V9.86569C10.7114 9.28285 10.2301 8.80859 9.63866 8.80859H6.55368C5.96222 8.80859 5.48094 9.28285 5.48094 9.86569V11.3623C5.48094 11.5726 5.63681 11.7458 5.84067 11.7792V12.0268C5.84067 12.7983 5.56619 13.1582 4.93997 13.7955C4.20288 14.5456 3.79695 15.5336 3.79695 16.5778V24.0777C3.79695 24.5985 3.98835 25.0758 4.30498 25.4459H3.26992C1.46688 25.4459 0 26.8914 0 28.6681C0 30.4449 1.46688 31.8903 3.26992 31.8903H33.2629C35.0659 31.8903 36.5328 30.4449 36.5328 28.6681C36.5328 26.8914 35.0659 25.4459 33.2629 25.4459ZM24.7668 16.5778C24.7668 15.7549 25.0867 14.9762 25.6676 14.3852C26.3369 13.7041 26.8106 13.1363 26.8106 12.0268V11.8209H29.6009V12.0268C29.6009 13.1362 30.0747 13.7042 30.744 14.3852C31.3248 14.9763 31.6448 15.7549 31.6448 16.5778V24.0777C31.6448 24.7823 31.063 25.3556 30.3479 25.3556H26.0637C25.3486 25.3556 24.7668 24.7823 24.7668 24.0777V16.5778ZM14.712 16.5778C14.712 15.7549 15.0319 14.9762 15.6127 14.3852C16.282 13.7041 16.7558 13.1362 16.7558 12.0268V11.8209H19.5461V12.0268C19.5461 13.1363 20.0198 13.7042 20.6891 14.3852C21.2699 14.9763 21.5898 15.7549 21.5898 16.5778V24.0777C21.5898 24.7823 21.0081 25.3556 20.293 25.3556H16.0088C15.2937 25.3556 14.712 24.7823 14.712 24.0777V16.5778ZM6.34113 9.86569C6.34113 9.75016 6.43644 9.65624 6.55368 9.65624H9.63849C9.75573 9.65624 9.85104 9.75016 9.85104 9.86569V10.9385H6.34113V9.86569ZM4.65714 16.5778C4.65714 15.7549 4.97705 14.9762 5.55793 14.3852C6.22716 13.7041 6.70095 13.1362 6.70095 12.0268V11.8209H9.49131V12.0268C9.49131 13.1363 9.96501 13.7042 10.6343 14.3852C11.2152 14.9763 11.5351 15.7549 11.5351 16.5778V24.0777C11.5351 24.7823 10.9534 25.3556 10.2382 25.3556H5.95396C5.23889 25.3556 4.65714 24.7823 4.65714 24.0777V16.5778ZM33.2629 31.0427H3.26992C1.94119 31.0427 0.860188 29.9775 0.860188 28.6681C0.860188 27.3588 1.94119 26.2935 3.26992 26.2935H33.2629C34.5916 26.2935 35.6726 27.3588 35.6726 28.6681C35.6726 29.9775 34.5916 31.0427 33.2629 31.0427Z" fill="#1F3B90"/>
<path d="M5.24807 27.2559C4.45782 27.2559 3.81491 27.8894 3.81491 28.6681C3.81491 29.4468 4.45782 30.0805 5.24807 30.0805C6.03832 30.0805 6.68123 29.4468 6.68123 28.6681C6.68123 27.8894 6.03832 27.2559 5.24807 27.2559ZM5.24807 29.2327C4.93212 29.2327 4.6751 28.9795 4.6751 28.668C4.6751 28.3567 4.93212 28.1034 5.24807 28.1034C5.56402 28.1034 5.82104 28.3567 5.82104 28.668C5.82104 28.9795 5.56402 29.2327 5.24807 29.2327Z" fill="#1F3B90"/>
<path d="M13.8499 27.2559C13.0597 27.2559 12.4167 27.8894 12.4167 28.6681C12.4167 29.4468 13.0597 30.0805 13.8499 30.0805C14.6402 30.0805 15.2831 29.4468 15.2831 28.6681C15.2831 27.8894 14.6402 27.2559 13.8499 27.2559ZM13.8499 29.2327C13.534 29.2327 13.2769 28.9795 13.2769 28.668C13.2769 28.3567 13.534 28.1034 13.8499 28.1034C14.1659 28.1034 14.4229 28.3567 14.4229 28.668C14.4229 28.9795 14.1659 29.2327 13.8499 29.2327Z" fill="#1F3B90"/>
<path d="M22.4518 27.2559C21.6615 27.2559 21.0186 27.8894 21.0186 28.6681C21.0186 29.4468 21.6615 30.0805 22.4518 30.0805C23.242 30.0805 23.8849 29.4468 23.8849 28.6681C23.8849 27.8894 23.242 27.2559 22.4518 27.2559ZM22.4518 29.2327C22.1358 29.2327 21.8788 28.9795 21.8788 28.668C21.8788 28.3567 22.1358 28.1034 22.4518 28.1034C22.7677 28.1034 23.0247 28.3567 23.0247 28.668C23.0247 28.9795 22.7677 29.2327 22.4518 29.2327Z" fill="#1F3B90"/>
<path d="M31.0536 27.2559C30.2634 27.2559 29.6205 27.8894 29.6205 28.6681C29.6205 29.4468 30.2634 30.0805 31.0536 30.0805C31.8439 30.0805 32.4868 29.4468 32.4868 28.6681C32.4868 27.8894 31.8439 27.2559 31.0536 27.2559ZM31.0536 29.2327C30.7377 29.2327 30.4807 28.9795 30.4807 28.668C30.4807 28.3567 30.7377 28.1034 31.0536 28.1034C31.3696 28.1034 31.6266 28.3567 31.6266 28.668C31.6266 28.9795 31.3696 29.2327 31.0536 29.2327Z" fill="#1F3B90"/>
<path d="M17.6969 2.86977V5.15976H16.6084C16.3709 5.15976 16.1784 5.34955 16.1784 5.58358V7.72143C15.8005 7.88519 15.5357 8.25705 15.5357 8.68918V10.1858C15.5357 10.4198 15.7283 10.6096 15.9658 10.6096H20.336C20.5735 10.6096 20.7661 10.4198 20.7661 10.1858V8.68918C20.7661 8.23917 20.4787 7.85493 20.0757 7.70269V5.58358C20.0757 5.34955 19.8831 5.15976 19.6456 5.15976H18.5571V2.86977C19.1378 2.68931 19.5602 2.15377 19.5602 1.52261C19.5602 0.74388 18.9173 0.110352 18.127 0.110352C17.5308 0.110352 17.0189 0.471108 16.8033 0.982576H5.5239V1.83022H16.7291C16.8408 2.32295 17.2135 2.71957 17.6969 2.86977ZM19.9059 9.76196H16.3959V8.68918C16.3959 8.57365 16.4912 8.47973 16.6084 8.47973H19.6932C19.8105 8.47973 19.9058 8.57365 19.9058 8.68918V9.76196H19.9059ZM19.2155 7.54732H17.0385V6.00741H19.2155V7.54732ZM18.127 0.95808C18.443 0.95808 18.7 1.21136 18.7 1.52269C18.7 1.83403 18.443 2.08739 18.127 2.08739C17.8111 2.08739 17.554 1.83412 17.554 1.52269C17.554 1.21136 17.8111 0.95808 18.127 0.95808Z" fill="#1F3B90"/>
</svg>
