<svg width="41" height="32" viewBox="0 0 41 32" fill="none" xmlns="http://www.w3.org/2000/svg">
<path d="M40.0986 25.4102C40.3711 25.4102 40.5919 25.1937 40.5919 24.9268V22.5101C40.5919 22.2432 40.3711 22.0268 40.0986 22.0268H36.3356V4.4064C36.3356 1.97666 34.3185 0 31.839 0H29.2302C27.4864 0 25.9724 0.978374 25.2268 2.40384C24.4812 0.978374 22.9672 0 21.2234 0H18.6145C16.135 0 14.1179 1.97666 14.1179 4.4064V10.5706L6.13121 9.30871L5.06927 1.12956C5.0379 0.888086 4.82838 0.707221 4.57998 0.707221H0.493235C0.220871 0.707221 0 0.92366 0 1.19056V8.90754V31.5167C0 31.7836 0.220871 32 0.493235 32H7.80762H17.9123H25.2267H27.9811H30.3826H34.839H35.8424H37.2404C37.5129 32 37.7337 31.7836 37.7337 31.5167V29.9844H40.0987C40.3712 29.9844 40.592 29.7679 40.592 29.501V27.0844C40.592 26.8175 40.3712 26.601 40.0987 26.601H37.7337V25.4103H40.0986V25.4102ZM39.6054 24.4435H37.7336V22.9935H39.6054V24.4435ZM24.7336 8.15585H15.1043V7.27705H24.7336V8.15585ZM25.72 7.27705H35.3492V8.15585H25.72V7.27705ZM27.4879 26.6009H25.7199V25.4102H27.4879V26.6009ZM25.72 27.5676H27.488V29.0176H25.72V27.5676ZM27.4879 24.4435H25.7199V22.9935H27.4879V24.4435ZM34.3457 29.0176H30.8758V27.5676H34.3457V29.0176ZM34.3457 26.6009H30.8758V25.4102H34.3457V26.6009ZM30.8758 29.9843H34.3457V31.0332H30.8758V29.9843ZM34.3457 24.4435H30.8758V22.9935H34.3457V24.4435ZM25.72 22.0268V12.8153V9.12253H35.3492V22.0268H25.72ZM29.2302 0.966677H31.839C33.7745 0.966677 35.3492 2.50969 35.3492 4.4064V6.31037H25.72V4.4064C25.72 2.50969 27.2946 0.966677 29.2302 0.966677ZM18.6145 0.966677H21.2234C23.1589 0.966677 24.7336 2.50969 24.7336 4.4064V6.31037H15.1043V4.4064C15.1043 2.50969 16.6789 0.966677 18.6145 0.966677ZM15.1043 9.12253H24.7336V12.2478L15.1043 10.7264V9.12253ZM4.14554 1.6739L5.11603 9.14834L0.98647 8.49583V1.6739H4.14554ZM0.98647 9.47498L24.7336 13.2269V22.3905C24.7235 22.4289 24.7165 22.4686 24.7165 22.51V24.9267C24.7165 24.9683 24.7235 25.0078 24.7336 25.0463V26.9646C24.7235 27.0031 24.7165 27.0427 24.7165 27.0842V29.5009C24.7165 29.5424 24.7235 29.582 24.7336 29.6204V31.0331H18.4056V22.6518C18.4056 22.3849 18.1847 22.1685 17.9123 22.1685H7.80762C7.53525 22.1685 7.31438 22.3849 7.31438 22.6518V31.0331H0.98647V9.47498ZM8.30085 23.1353H12.3668V31.0332H8.30085V23.1353ZM13.3533 31.0332V23.1353H17.4191V31.0332H13.3533ZM25.72 29.9843H27.488V31.0332H25.72V29.9843ZM28.4744 31.0332V23.1353H29.8894V31.0332H28.4744ZM36.7472 31.0332H35.8424H35.3322V23.1353H36.7472V31.0332ZM39.6054 27.5676V29.0176H37.7336V27.5676H39.6054Z" fill="#1F3B90"/>
</svg>
