<svg width="41" height="41" viewBox="0 0 41 41" fill="none" xmlns="http://www.w3.org/2000/svg">
<path d="M26.9062 9.60938C26.9063 10.4963 27.1693 11.3633 27.662 12.1008C28.1548 12.8382 28.8551 13.413 29.6745 13.7524C30.4939 14.0918 31.3956 14.1806 32.2655 14.0076C33.1354 13.8346 33.9344 13.4075 34.5616 12.7803C35.1887 12.1532 35.6158 11.3541 35.7888 10.4842C35.9619 9.61435 35.8731 8.71269 35.5336 7.89328C35.1942 7.07387 34.6195 6.3735 33.882 5.88075C33.1446 5.388 32.2776 5.125 31.3906 5.125C30.2017 5.12636 29.0619 5.59925 28.2212 6.43994C27.3805 7.28063 26.9076 8.42046 26.9062 9.60938ZM31.3906 6.40625C32.0241 6.40625 32.6434 6.59411 33.1702 6.94607C33.6969 7.29804 34.1075 7.7983 34.3499 8.38359C34.5924 8.96889 34.6558 9.61293 34.5322 10.2343C34.4086 10.8556 34.1035 11.4264 33.6556 11.8743C33.2076 12.3223 32.6369 12.6274 32.0155 12.751C31.3942 12.8745 30.7501 12.8111 30.1648 12.5687C29.5795 12.3262 29.0793 11.9157 28.7273 11.3889C28.3754 10.8622 28.1875 10.2429 28.1875 9.60938C28.1885 8.76017 28.5263 7.94603 29.1268 7.34555C29.7273 6.74506 30.5414 6.40727 31.3906 6.40625Z" fill="#1F3B90"/>
<path d="M32.0312 1.92188C32.0312 1.56807 31.7444 1.28125 31.3906 1.28125C31.0368 1.28125 30.75 1.56807 30.75 1.92188V3.20312C30.75 3.55693 31.0368 3.84375 31.3906 3.84375C31.7444 3.84375 32.0312 3.55693 32.0312 3.20312V1.92188Z" fill="#1F3B90"/>
<path d="M9.60938 1.92188C9.60938 1.56807 9.32256 1.28125 8.96875 1.28125C8.61494 1.28125 8.32812 1.56807 8.32812 1.92188V3.20312C8.32812 3.55693 8.61494 3.84375 8.96875 3.84375C9.32256 3.84375 9.60938 3.55693 9.60938 3.20312V1.92188Z" fill="#1F3B90"/>
<path d="M13.719 3.2029L12.8125 4.10938C12.6958 4.23021 12.6312 4.39203 12.6327 4.56C12.6341 4.72797 12.7015 4.88865 12.8203 5.00742C12.9391 5.1262 13.0997 5.19358 13.2677 5.19503C13.4357 5.19649 13.5975 5.13192 13.7183 5.01523L14.6248 4.10874C14.686 4.04965 14.7348 3.97896 14.7684 3.9008C14.802 3.82264 14.8196 3.73858 14.8204 3.65352C14.8211 3.56845 14.8049 3.4841 14.7727 3.40537C14.7405 3.32664 14.6929 3.25511 14.6328 3.19496C14.5726 3.13481 14.5011 3.08724 14.4224 3.05503C14.3436 3.02282 14.2593 3.00661 14.1742 3.00735C14.0891 3.00809 14.0051 3.02576 13.9269 3.05933C13.8488 3.09291 13.7781 3.14171 13.719 3.2029Z" fill="#1F3B90"/>
<path d="M4.10896 3.20327C3.98814 3.08657 3.82631 3.022 3.65834 3.02346C3.49037 3.02492 3.3297 3.0923 3.21092 3.21107C3.09214 3.32985 3.02477 3.49053 3.02331 3.6585C3.02185 3.82647 3.08642 3.98829 3.20312 4.10911L4.1096 5.0156C4.23042 5.13229 4.39225 5.19686 4.56022 5.1954C4.72819 5.19394 4.88886 5.12657 5.00764 5.00779C5.12642 4.88902 5.19379 4.72834 5.19525 4.56037C5.19671 4.3924 5.13214 4.23058 5.01544 4.10975L4.10896 3.20327Z" fill="#1F3B90"/>
<path d="M16.0156 8.32812H14.7344C14.3806 8.32812 14.0938 8.61494 14.0938 8.96875C14.0938 9.32256 14.3806 9.60938 14.7344 9.60938H16.0156C16.3694 9.60938 16.6562 9.32256 16.6562 8.96875C16.6562 8.61494 16.3694 8.32812 16.0156 8.32812Z" fill="#1F3B90"/>
<path d="M3.20312 8.32812H1.92188C1.56807 8.32812 1.28125 8.61494 1.28125 8.96875C1.28125 9.32256 1.56807 9.60938 1.92188 9.60938H3.20312C3.55693 9.60938 3.84375 9.32256 3.84375 8.96875C3.84375 8.61494 3.55693 8.32812 3.20312 8.32812Z" fill="#1F3B90"/>
<path d="M39.0781 8.96875H37.7969C37.4431 8.96875 37.1562 9.25557 37.1562 9.60938C37.1562 9.96318 37.4431 10.25 37.7969 10.25H39.0781C39.4319 10.25 39.7188 9.96318 39.7188 9.60938C39.7188 9.25557 39.4319 8.96875 39.0781 8.96875Z" fill="#1F3B90"/>
<path d="M24.9844 8.96875H23.7031C23.3493 8.96875 23.0625 9.25557 23.0625 9.60938C23.0625 9.96318 23.3493 10.25 23.7031 10.25H24.9844C25.3382 10.25 25.625 9.96318 25.625 9.60938C25.625 9.25557 25.3382 8.96875 24.9844 8.96875Z" fill="#1F3B90"/>
<path d="M37.2792 3.72077C37.1591 3.60067 36.9962 3.5332 36.8263 3.5332C36.6564 3.5332 36.4935 3.60067 36.3734 3.72077L35.4676 4.62661C35.3509 4.74744 35.2863 4.90926 35.2877 5.07723C35.2892 5.2452 35.3566 5.40588 35.4754 5.52465C35.5941 5.64343 35.7548 5.7108 35.9228 5.71226C36.0907 5.71372 36.2526 5.64915 36.3734 5.53246L37.2792 4.62661C37.3993 4.50648 37.4668 4.34356 37.4668 4.17369C37.4668 4.00382 37.3993 3.8409 37.2792 3.72077Z" fill="#1F3B90"/>
<path d="M26.4078 13.6863L25.502 14.5921C25.3853 14.713 25.3207 14.8748 25.3222 15.0428C25.3237 15.2107 25.391 15.3714 25.5098 15.4902C25.6286 15.609 25.7893 15.6763 25.9572 15.6778C26.1252 15.6793 26.287 15.6147 26.4078 15.498L27.3137 14.5921C27.3749 14.533 27.4237 14.4624 27.4573 14.3842C27.4908 14.306 27.5085 14.222 27.5092 14.1369C27.51 14.0519 27.4938 13.9675 27.4616 13.8888C27.4294 13.81 27.3818 13.7385 27.3216 13.6784C27.2615 13.6182 27.19 13.5706 27.1112 13.5384C27.0325 13.5062 26.9481 13.49 26.8631 13.4907C26.778 13.4915 26.694 13.5092 26.6158 13.5427C26.5376 13.5763 26.4669 13.6251 26.4078 13.6863Z" fill="#1F3B90"/>
<path d="M35.4676 13.6861C35.3475 13.8062 35.28 13.9692 35.28 14.139C35.28 14.3089 35.3475 14.4718 35.4676 14.5919L36.3734 15.4978C36.4942 15.6145 36.6561 15.6791 36.824 15.6776C36.992 15.6761 37.1527 15.6088 37.2714 15.49C37.3902 15.3712 37.4576 15.2105 37.4591 15.0426C37.4605 14.8746 37.3959 14.7128 37.2793 14.5919L36.3734 13.6861C36.2533 13.566 36.0904 13.4985 35.9205 13.4985C35.7506 13.4985 35.5877 13.566 35.4676 13.6861Z" fill="#1F3B90"/>
<path d="M26.4078 3.72085C26.287 3.60415 26.1252 3.53958 25.9572 3.54104C25.7893 3.5425 25.6286 3.60987 25.5098 3.72865C25.391 3.84743 25.3237 4.0081 25.3222 4.17607C25.3207 4.34404 25.3853 4.50587 25.502 4.62669L26.4078 5.53253C26.4669 5.59372 26.5376 5.64252 26.6158 5.6761C26.694 5.70967 26.778 5.72735 26.8631 5.72809C26.9481 5.72882 27.0325 5.71262 27.1112 5.6804C27.19 5.64819 27.2615 5.60062 27.3216 5.54047C27.3818 5.48032 27.4294 5.4088 27.4616 5.33007C27.4938 5.25134 27.51 5.16698 27.5092 5.08192C27.5085 4.99686 27.4908 4.91279 27.4573 4.83463C27.4237 4.75648 27.3749 4.68579 27.3137 4.62669L26.4078 3.72085Z" fill="#1F3B90"/>
<path d="M18.9683 23.0625H13.4531C13.3537 23.0625 13.2556 23.0857 13.1666 23.1301C13.0777 23.1746 13.0003 23.2392 12.9406 23.3188L5.25313 33.5688C5.18174 33.6639 5.13827 33.7771 5.12759 33.8956C5.1169 34.0141 5.13943 34.1332 5.19263 34.2396C5.24584 34.346 5.32763 34.4355 5.42883 34.4981C5.53003 34.5606 5.64665 34.5938 5.76563 34.5938H19.8594V38.4375H18.5781C18.4082 38.4375 18.2453 38.505 18.1251 38.6251C18.005 38.7453 17.9375 38.9082 17.9375 39.0781C17.9375 39.248 18.005 39.411 18.1251 39.5311C18.2453 39.6513 18.4082 39.7188 18.5781 39.7188H22.4219C22.5918 39.7188 22.7547 39.6513 22.8749 39.5311C22.995 39.411 23.0625 39.248 23.0625 39.0781C23.0625 38.9082 22.995 38.7453 22.8749 38.6251C22.7547 38.505 22.5918 38.4375 22.4219 38.4375H21.1406V34.5938H35.2344C35.3533 34.5938 35.47 34.5606 35.5712 34.4981C35.6724 34.4355 35.7542 34.346 35.8074 34.2396C35.8606 34.1332 35.8831 34.0141 35.8724 33.8956C35.8617 33.7771 35.8183 33.6639 35.7469 33.5688L28.0594 23.3188C27.9997 23.2392 27.9223 23.1746 27.8334 23.1301C27.7444 23.0857 27.6463 23.0625 27.5469 23.0625H18.9683ZM19.5128 24.3438H21.4872L21.696 25.625H19.304L19.5128 24.3438ZM13.7734 24.3438H15.5499L15.0066 25.625H12.8125L13.7734 24.3438ZM11.8516 26.9062H14.4634L13.9201 28.1875H10.8906L11.8516 26.9062ZM11.7478 33.3125H7.04688L8.00781 32.0312H12.2904L11.7478 33.3125ZM8.96875 30.75L9.92969 29.4688H13.3769L12.8336 30.75H8.96875ZM16.7523 33.3125H13.1392L13.6825 32.0312H16.9612L16.7523 33.3125ZM17.17 30.75H14.2232L14.7664 29.4688H17.3763L17.17 30.75ZM17.5877 28.1875H15.3109L15.8542 26.9062H17.7966L17.5877 28.1875ZM16.4 25.625L16.9432 24.3438H18.2168L18.008 25.625H16.4ZM23.623 29.4688H26.233L26.7762 30.75H23.8313L23.623 29.4688ZM24.2496 33.3125L24.0407 32.0312H27.3195L27.8627 33.3125H24.2496ZM33.9531 33.3125H29.2522L28.7096 32.0312H32.9922L33.9531 33.3125ZM32.0312 30.75H28.1664L27.6231 29.4688H31.0703L32.0312 30.75ZM30.1094 28.1875H27.0799L26.5366 26.9062H29.1484L30.1094 28.1875ZM27.2266 24.3438L28.1875 25.625H25.9934L25.4501 24.3438H27.2266ZM25.6891 28.1875H23.4123L23.2028 26.9062H25.1452L25.6891 28.1875ZM24.0593 24.3438L24.6026 25.625H22.9946L22.7858 24.3438H24.0593ZM22.9498 33.3125H18.0503L18.2591 32.0312H22.7435L22.9498 33.3125ZM22.5321 30.75H18.4679L18.6774 29.4688H22.3226L22.5321 30.75ZM18.8863 28.1875L19.0951 26.9062H21.9049L22.1137 28.1875H18.8863Z" fill="#1F3B90"/>
<path d="M5.125 8.96875C5.12429 9.5075 5.23816 10.0402 5.45906 10.5316C5.67996 11.023 6.00283 11.4618 6.40625 11.8189V12.1719C6.40616 12.2713 6.42919 12.3693 6.47352 12.4582L7.04688 13.6043V15.375C7.04688 15.7148 7.18187 16.0407 7.42215 16.281C7.66243 16.5213 7.98832 16.6562 8.32813 16.6562H9.60938C9.94919 16.6562 10.2751 16.5213 10.5154 16.281C10.7556 16.0407 10.8906 15.7148 10.8906 15.375V13.6043L11.464 12.4582C11.5083 12.3693 11.5313 12.2713 11.5313 12.1719V11.8189C11.9347 11.4618 12.2575 11.023 12.4784 10.5316C12.6993 10.0402 12.8132 9.5075 12.8125 8.96875C12.8125 7.94932 12.4075 6.97165 11.6867 6.25081C10.9659 5.52997 9.98818 5.125 8.96875 5.125C7.94933 5.125 6.97165 5.52997 6.25081 6.25081C5.52997 6.97165 5.125 7.94932 5.125 8.96875ZM8.32813 15.375V14.0938H9.60938V15.375H8.32813ZM8.96875 6.40625C9.64837 6.40625 10.3002 6.67623 10.7807 7.15679C11.2613 7.63735 11.5313 8.28913 11.5313 8.96875C11.5311 9.36472 11.4383 9.75516 11.2603 10.1089C11.0823 10.4626 10.8241 10.7698 10.5063 11.0059C10.4267 11.0656 10.3621 11.143 10.3176 11.2319C10.2732 11.3209 10.25 11.419 10.25 11.5184V12.022L9.8541 12.8125H8.08341L7.6875 12.0207V11.5172C7.6875 11.4177 7.66435 11.3196 7.61987 11.2307C7.57539 11.1417 7.51082 11.0643 7.43125 11.0047C7.11358 10.7686 6.85546 10.4616 6.6775 10.1082C6.49953 9.75469 6.40665 9.3645 6.40625 8.96875C6.40625 8.28913 6.67623 7.63735 7.15679 7.15679C7.63735 6.67623 8.28914 6.40625 8.96875 6.40625Z" fill="#1F3B90"/>
<path d="M31.3906 16.6562C31.7444 16.6562 32.0312 16.3694 32.0312 16.0156C32.0312 15.6618 31.7444 15.375 31.3906 15.375C31.0368 15.375 30.75 15.6618 30.75 16.0156C30.75 16.3694 31.0368 16.6562 31.3906 16.6562Z" fill="#1F3B90"/>
<path d="M31.3906 19.2188C31.7444 19.2188 32.0312 18.9319 32.0312 18.5781C32.0312 18.2243 31.7444 17.9375 31.3906 17.9375C31.0368 17.9375 30.75 18.2243 30.75 18.5781C30.75 18.9319 31.0368 19.2188 31.3906 19.2188Z" fill="#1F3B90"/>
<path d="M31.3906 21.7812C31.7444 21.7812 32.0312 21.4944 32.0312 21.1406C32.0312 20.7868 31.7444 20.5 31.3906 20.5C31.0368 20.5 30.75 20.7868 30.75 21.1406C30.75 21.4944 31.0368 21.7812 31.3906 21.7812Z" fill="#1F3B90"/>
<path d="M31.3906 24.3438C31.7444 24.3438 32.0312 24.0569 32.0312 23.7031C32.0312 23.3493 31.7444 23.0625 31.3906 23.0625C31.0368 23.0625 30.75 23.3493 30.75 23.7031C30.75 24.0569 31.0368 24.3438 31.3906 24.3438Z" fill="#1F3B90"/>
<path d="M8.96875 19.2188C9.32256 19.2188 9.60938 18.9319 9.60938 18.5781C9.60938 18.2243 9.32256 17.9375 8.96875 17.9375C8.61494 17.9375 8.32812 18.2243 8.32812 18.5781C8.32812 18.9319 8.61494 19.2188 8.96875 19.2188Z" fill="#1F3B90"/>
<path d="M8.96875 21.7812C9.32256 21.7812 9.60938 21.4944 9.60938 21.1406C9.60938 20.7868 9.32256 20.5 8.96875 20.5C8.61494 20.5 8.32812 20.7868 8.32812 21.1406C8.32812 21.4944 8.61494 21.7812 8.96875 21.7812Z" fill="#1F3B90"/>
<path d="M8.96875 24.3438C9.32256 24.3438 9.60938 24.0569 9.60938 23.7031C9.60938 23.3493 9.32256 23.0625 8.96875 23.0625C8.61494 23.0625 8.32812 23.3493 8.32812 23.7031C8.32812 24.0569 8.61494 24.3438 8.96875 24.3438Z" fill="#1F3B90"/>
</svg>
