<svg width="52" height="52" viewBox="0 0 52 52" fill="none" xmlns="http://www.w3.org/2000/svg">
<path d="M38.3988 21.6206H26.5932C25.7623 21.623 24.9663 21.9545 24.3792 22.5425C23.7922 23.1304 23.462 23.927 23.461 24.7579V32.0826L18.3148 27.0156C18.0999 26.8037 17.8102 26.685 17.5084 26.685C17.2066 26.685 16.9169 26.8037 16.702 27.0156L8.42972 35.1751C8.26783 35.3349 8.15701 35.5391 8.11131 35.7619C8.06562 35.9848 8.0871 36.2161 8.17303 36.4267C8.25896 36.6373 8.40548 36.8176 8.59402 36.9449C8.78255 37.0721 9.00461 37.1405 9.23206 37.1414H10.5524V47.2611C10.5529 47.695 10.7252 48.111 11.0316 48.4181C11.3381 48.7253 11.7537 48.8987 12.1875 48.9003H39.8968C40.1123 48.9006 40.3257 48.8584 40.5249 48.7761C40.7241 48.6939 40.9051 48.5732 41.0576 48.421C41.2101 48.2687 41.3311 48.0879 41.4138 47.8889C41.4964 47.6899 41.539 47.4766 41.5391 47.2611V24.7579C41.5383 23.9255 41.2071 23.1276 40.6182 22.5393C40.0294 21.951 39.2311 21.6206 38.3988 21.6206ZM23.461 47.1737H20.082V43.7805C20.0817 43.5235 19.9794 43.277 19.7975 43.0953C19.6157 42.9137 19.3691 42.8116 19.1121 42.8116H16.6228C16.3658 42.8116 16.1193 42.9137 15.9376 43.0954C15.7559 43.2771 15.6539 43.5236 15.6539 43.7805V47.1737H12.2789V37.1414H23.461V47.1737ZM39.8125 47.1737H34.7141V43.7805C34.7138 43.5235 34.6115 43.277 34.4297 43.0953C34.2478 42.9137 34.0012 42.8116 33.7442 42.8116H31.2559C31.1286 42.8115 31.0025 42.8365 30.8848 42.8851C30.7671 42.9337 30.6602 43.0051 30.5701 43.095C30.48 43.185 30.4086 43.2919 30.3598 43.4095C30.3111 43.5271 30.286 43.6532 30.286 43.7805V47.1737H25.1875V24.7579C25.1878 24.3838 25.3365 24.0252 25.601 23.7607C25.8655 23.4962 26.2242 23.3474 26.5982 23.3472H38.3988C38.5843 23.3469 38.768 23.3832 38.9394 23.4539C39.1109 23.5247 39.2667 23.6286 39.398 23.7596C39.5293 23.8906 39.6335 24.0462 39.7046 24.2175C39.7757 24.3888 39.8124 24.5724 39.8125 24.7579V47.1737Z" fill="#1F3B90"/>
<path d="M30.9055 26.6804H28.5482C28.275 26.6804 28.0536 26.9019 28.0536 27.175V30.5276C28.0536 30.8008 28.275 31.0222 28.5482 31.0222H30.9055C31.1786 31.0222 31.4001 30.8008 31.4001 30.5276V27.175C31.4001 26.9019 31.1786 26.6804 30.9055 26.6804Z" fill="#1F3B90"/>
<path d="M36.4427 26.6804H34.0854C33.8123 26.6804 33.5908 26.9019 33.5908 27.175V30.5276C33.5908 30.8008 33.8123 31.0222 34.0854 31.0222H36.4427C36.7159 31.0222 36.9373 30.8008 36.9373 30.5276V27.175C36.9373 26.9019 36.7159 26.6804 36.4427 26.6804Z" fill="#1F3B90"/>
<path d="M30.9055 32.7996H28.5482C28.275 32.7996 28.0536 33.021 28.0536 33.2942V36.6467C28.0536 36.9199 28.275 37.1414 28.5482 37.1414H30.9055C31.1786 37.1414 31.4001 36.9199 31.4001 36.6467V33.2942C31.4001 33.021 31.1786 32.7996 30.9055 32.7996Z" fill="#1F3B90"/>
<path d="M36.4427 32.7996H34.0854C33.8123 32.7996 33.5908 33.021 33.5908 33.2942V36.6467C33.5908 36.9199 33.8123 37.1414 34.0854 37.1414H36.4427C36.7159 37.1414 36.9373 36.9199 36.9373 36.6467V33.2942C36.9373 33.021 36.7159 32.7996 36.4427 32.7996Z" fill="#1F3B90"/>
<path d="M25.2952 18.0933C25.3906 18.0933 27.1974 18.0933 27.4564 18.0781C30.5145 17.942 32.9032 17.0005 34.5658 15.275C37.0033 12.7511 37.2125 9.20864 37.1231 7.3216C37.0966 6.71601 36.8441 6.14234 36.4154 5.71371C35.9868 5.28507 35.4131 5.03257 34.8075 5.00598C32.9195 4.9166 29.378 5.12887 26.8542 7.56231C26.5922 7.81617 26.3479 8.08763 26.1229 8.37481C25.898 8.08763 25.6536 7.81617 25.3917 7.56231C22.8678 5.12481 19.3253 4.92168 17.4383 5.00598C16.8327 5.03257 16.259 5.28507 15.8304 5.71371C15.4018 6.14234 15.1493 6.71601 15.1227 7.3216C15.0333 9.20864 15.2456 12.7501 17.679 15.275C19.435 17.095 21.9944 18.0415 25.2952 18.0933ZM28.1237 8.87856C29.9214 7.1459 32.4584 6.81785 34.122 6.81785C34.3373 6.81785 34.5384 6.82293 34.7212 6.83207C34.8725 6.84001 35.0154 6.90402 35.1221 7.01161C35.2287 7.11921 35.2915 7.26267 35.2981 7.41403C35.3732 9.00653 35.2087 11.9843 33.2506 14.0156C32.0613 15.2496 30.3479 15.9818 28.1511 16.2032C28.1896 16.0322 28.21 15.8576 28.2121 15.6822C28.2354 13.5007 27.884 11.6279 27.1649 10.08C27.4338 9.64157 27.7558 9.23802 28.1237 8.87856ZM16.9498 7.41403C16.9576 7.26357 17.0209 7.12134 17.1274 7.01481C17.234 6.90827 17.3762 6.84498 17.5267 6.83715C19.1181 6.76098 22.097 6.92653 24.1282 8.88364C25.4993 10.2039 26.2509 12.1692 26.3707 14.7265C25.571 13.5583 24.4309 12.6647 23.1055 12.1672L22.5418 13.8714C22.6292 13.9018 24.3242 14.499 25.1885 16.2672C22.4646 16.2002 20.3816 15.4425 19.0014 14.0115C17.0392 11.9762 16.8736 9.00145 16.9498 7.41403Z" fill="#1F3B90"/>
</svg>
